<svg xmlns="http://www.w3.org/2000/svg" width="128" height="128" viewBox="0 0 128 128"><path fill="#666" d="M97.355 566.844c-3.312 0-6 2.69-6 6s2.688 6 6 6c3.31 0 6-2.69 6-6s-2.69-6-6-6zm0 10.54c-.66 0-1.205-.536-1.205-1.202 0-.668.545-1.198 1.205-1.198.658 0 1.205.53 1.205 1.198 0 .666-.546 1.2-1.205 1.2zm.463-3.037h-.928l-.93-5.137.46-.5h1.865l.46.5-.927 5.137z"/><path d="M94.78 0H19.427L11.47 7.998v112L19.96 128h87.522l7.955-8.002V22.134L94.78 0zm-27.3 111.968H27.474V99.986h40.003v11.982zm27.985-23.952h-67.99v-12h67.99v12zm0-23.99h-67.99v-12.04h67.99v12.04zm0-24.036h-67.99V28.01h67.99v11.98z"/></svg>