<svg xmlns="http://www.w3.org/2000/svg" width="128" height="128" viewBox="0 0 128 128"><path fill="#666" d="M97.355 566.844c-3.312 0-6 2.69-6 6s2.688 6 6 6c3.31 0 6-2.69 6-6s-2.69-6-6-6zm0 10.54c-.66 0-1.205-.536-1.205-1.202 0-.668.545-1.198 1.205-1.198.658 0 1.205.53 1.205 1.198 0 .666-.546 1.2-1.205 1.2zm.463-3.037h-.928l-.93-5.137.46-.5h1.865l.46.5-.927 5.137z"/><g fill="#231F20"><path d="M63.967 55.976h.086c6.79.025 13.168-2.444 17.722-7.33 4.518-4.853 7.106-11.943 7.09-20.756.017-8.522-2.41-15.5-6.84-20.387C77.604 2.59 71.176-.017 64.12 0c-6.79-.017-13.176 2.418-17.71 7.27-4.528 4.853-7.11 11.892-7.092 20.697 0 8.504 2.393 15.543 6.817 20.473 4.424 4.912 10.794 7.536 17.832 7.536zM109.5 74.176c-24.434-15.277-66.384-15.277-90.773 0h-.06v.146l-4.125 46.656L20.664 128h86.855l6.12-7.02-4.14-46.804z"/></g></svg>