<svg xmlns="http://www.w3.org/2000/svg" width="128" height="128" viewBox="0 0 128 128"><path fill="#666" d="M97.355 566.844c-3.312 0-6 2.69-6 6s2.688 6 6 6c3.31 0 6-2.69 6-6s-2.69-6-6-6zm0 10.54c-.66 0-1.205-.536-1.205-1.202 0-.668.545-1.198 1.205-1.198.658 0 1.205.53 1.205 1.198 0 .666-.546 1.2-1.205 1.2zm.463-3.037h-.928l-.93-5.137.46-.5h1.865l.46.5-.927 5.137z"/><path fill="#231F20" d="M64 0C28.67 0 0 28.65 0 64c0 35.33 28.67 64 64 64s64-28.67 64-64c0-35.35-28.67-64-64-64zm40.714 69.82l-40.598 3.76-7.402-7.455 4.34-54.482h5.893l4 50.34L104.714 64v5.82z"/></svg>