<svg xmlns="http://www.w3.org/2000/svg" width="128" height="128" viewBox="0 0 128 128"><path fill="#666" d="M97.355 566.844c-3.312 0-6 2.69-6 6s2.688 6 6 6c3.31 0 6-2.69 6-6s-2.69-6-6-6zm0 10.54c-.66 0-1.205-.536-1.205-1.202 0-.668.545-1.198 1.205-1.198.658 0 1.205.53 1.205 1.198 0 .666-.546 1.2-1.205 1.2zm.463-3.037h-.928l-.93-5.137.46-.5h1.865l.46.5-.927 5.137z"/><path fill="#231F20" d="M12.153 64.85C12.153 16.6 45.173 0 76.823 0c15.24 0 28.106 2.366 35.58 5.42l1.17 33.348H97.975L89.86 19.634c-3.385-1.518-8.135-3.035-14.045-3.035-17.455 0-26.25 12.347-26.25 45.374 0 38.768 8.473 49.776 27.26 49.776 6.105 0 11.508-1.866 14.73-3.562l7.982-19.982h15.205l-1.33 32.857c-8.82 4.062-20.49 6.938-39.973 6.938-34.215 0-61.287-17.776-61.287-63.15z"/></svg>