<svg xmlns="http://www.w3.org/2000/svg" width="128" height="128" viewBox="0 0 128 128"><path fill="#666" d="M97.355 566.844c-3.312 0-6 2.69-6 6s2.688 6 6 6c3.31 0 6-2.69 6-6s-2.69-6-6-6zm0 10.54c-.66 0-1.205-.536-1.205-1.202 0-.668.545-1.198 1.205-1.198.658 0 1.205.53 1.205 1.198 0 .666-.546 1.2-1.205 1.2zm.463-3.037h-.928l-.93-5.137.46-.5h1.865l.46.5-.927 5.137z"/><path d="M120 33.593l-20-.036-12-16H40L28 33.69l-20-.017-8 7.768v60.005l8 8.004h112l8-8.005V41.44l-8-7.847zM64 89.387c-11.036 0-19.964-8.94-19.964-19.96 0-11.013 8.93-19.99 19.964-19.99s19.965 8.978 19.965 19.99c0 11.018-8.93 19.96-19.965 19.96z"/></svg>