<svg xmlns="http://www.w3.org/2000/svg" xmlns:xlink="http://www.w3.org/1999/xlink" width="128" height="128" viewBox="0 0 128 128">
    <defs>
        <style type="text/css"><![CDATA[
            g { display: none; }
            g:target { display: block; }

            /* default icon colour */
            g { fill: #666; }

            /* hover / selected colour (green) */
            g.hover { fill: #47AE38; }

            /* inactive (grey) */
            g.inactive { fill: #DCDCDC; }

            /* urgent icon (yellow) */
            #priority-urgent { fill: #FFBC01; }

            /* very urgent icon (red) */
            #priority-very-urgent { fill: #ED5935; }
        ]]></style>
    </defs>

    <g id="arrow-down">
        <path d="M0 38.945L57.91 85.35l6.055 4.954 6.02-4.924L128 38.945l-2.994-3.742-61.033 34.81-60.98-34.818z"/>
    </g>
    <g id="arrow-up">
        <path d="M0 86.554L57.91 40.15l6.055-4.955 6.02 4.924L128 86.553l-2.994 3.742-61.033-34.81-60.98 34.818z"/>
    </g>

    <g id="article">
        <path id="apath" d="M94.78 0H19.427L11.47 7.998v112L19.96 128h87.522l7.955-8.002V22.134L94.78 0zm-27.3 111.968H27.474V99.986h40.003v11.982zm27.985-23.952h-67.99v-12h67.99v12zm0-23.99h-67.99v-12.04h67.99v12.04zm0-24.036h-67.99V28.01h67.99v11.98z"/>
    </g>

    <g id="assigned-to">
        <path d="M63.967 55.976h.086c6.79.025 13.168-2.444 17.722-7.33 4.518-4.853 7.106-11.943 7.09-20.756.017-8.522-2.41-15.5-6.84-20.387C77.604 2.59 71.176-.017 64.12 0c-6.79-.017-13.176 2.418-17.71 7.27-4.528 4.853-7.11 11.892-7.092 20.697 0 8.504 2.393 15.543 6.817 20.473 4.424 4.912 10.794 7.536 17.832 7.536zM109.5 74.176c-24.434-15.277-66.384-15.277-90.773 0h-.06v.146l-4.125 46.656L20.664 128h86.855l6.12-7.02-4.14-46.804z"/>
    </g>

    <g id="check">
        <path d="M128 18.575l-6.285-6.304-86.09 78L6.473 62.576 0 69.058l32.465 45.32h3.16z"/>
    </g>

    <g id="clock">
        <path d="M64 0C28.67 0 0 28.65 0 64c0 35.33 28.67 64 64 64s64-28.67 64-64c0-35.35-28.67-64-64-64zm40.714 69.82l-40.598 3.76-7.402-7.455 4.34-54.482h5.893l4 50.34L104.714 64v5.82z"/>
    </g>

    <g id="comments-active">
        <path id="comment-path" d="M117.803 6.376l-107.57-.07L0 16.545v66.58l10.232 9.24H25.58v31.706h4.473l26.25-31.705h61.465L128 83.127v-66.58z"/>
    </g>

    <g id="comments-inactive" class="inactive">
        <use xlink:href="#comment-path"/>
    </g>

    <g id="composer">
        <path d="M12.153 64.85C12.153 16.6 45.173 0 76.823 0c15.24 0 28.106 2.366 35.58 5.42l1.17 33.348H97.975L89.86 19.634c-3.385-1.518-8.135-3.035-14.045-3.035-17.455 0-26.25 12.347-26.25 45.374 0 38.768 8.473 49.776 27.26 49.776 6.105 0 11.508-1.866 14.73-3.562l7.982-19.982h15.205l-1.33 32.857c-8.82 4.062-20.49 6.938-39.973 6.938-34.215 0-61.287-17.776-61.287-63.15z"/>
    </g>

    <g id="cross">
        <path d="M0 119.804L8.215 128l62.57-57.196L128 8.196 119.786 0l-62.57 57.196zM119.786 128l8.214-8.196-57.214-62.608L8.216 0 0 8.196l57.215 62.608z"/>
    </g>

    <g id="gallery">
        <path d="M120 33.593l-20-.036-12-16H40L28 33.69l-20-.017-8 7.768v60.005l8 8.004h112l8-8.005V41.44l-8-7.847zM64 89.387c-11.036 0-19.964-8.94-19.964-19.96 0-11.013 8.93-19.99 19.964-19.99s19.965 8.978 19.965 19.99c0 11.018-8.93 19.96-19.965 19.96z"/>
    </g>

    <g id="interactive">
        <path d="M57.682 112.02c1.772 1.376 3.19 4.022 3.19 5.878V128h47.16l6.325-65.882c.242-2.2-1.23-4.757-3.285-5.652L74.36 40.426 68.296 3.952c-.373-2.173-2.5-3.95-4.72-3.95h-5.392c-2.22 0-4.197 1.787-4.403 4.006l-6.007 68.53c-.205 2.192-1.96 3.183-3.955 2.124L20.95 62.51c-1.997-1.045-4.516-.317-5.673 1.585l-5.95 10.01L57.68 112.02z"/>
    </g>

    <g id="live-site">
        <path d="M25.74 30.41c0 11.635 6.117 19.35 14.546 25.027l.438.286c-4.946 3.35-15.125 11.34-15.125 20.5 0 6.99 4.517 13.536 13.973 15.724-10.045 1.884-21.1 6.393-21.1 17.59v.874C7.27 98.778 0 83.358 0 65.76 0 39.732 15.572 17.902 37.24 7.43c-7.124 5.23-11.5 13.09-11.5 22.98zm50.484 66.77c8 0 12.366 4.07 12.366 10.035 0 6.982-5.1 12.223-24 12.223-16.58 0-22.26-5.678-22.26-11.928 0-4.66 2.027-10.33 10.18-10.33h23.714zm32.588 14.106c2.17-4.51 3.482-9.6 3.482-15.26C112.294 78.563 102.99 71 83.348 71H51.786c-3.34 0-6.26-2.768-6.26-5.83 0-2.178 1.75-4.643 4.072-6.384 4.652 1.59 8.732 1.74 14.402 1.74 22.545 0 38.116-11.06 37.822-30.258-.152-10.91-4.804-18.624-12.5-23.268C111.857 16.732 128 39.135 128 65.76c0 17.892-7.41 33.892-19.188 45.526zM64 49.76c-6.25 0-11.49-1.465-11.49-19.35 0-17.892 5.24-20.213 11.49-20.213 6.545 0 11.5 2.76 11.5 20.214 0 17.447-5.24 19.35-11.5 19.35z"/>
    </g>

    <g id="liveblog">
        <path d="M42.25.018h85.303v31.99H42.25zM42.598 48.018h85.304v31.99H42.598zM42.438 96.018h85.285V128H42.438zM.026 0h23.41v31.99H.027zM0 47.938h23.4V79.92H0zM0 95.875h23.41v31.982H0z"/>
    </g>

    <g id="main-image-active">
        <path id="main-image-path" d="M0 12.432v93.606l9.86 9.227h108.36l9.78.006-.187-92.986-9.593-9.236L0 12.432zm113.3 78.816H19.713l4.77-8.432 1.43-2.492 6.234-10.81 12.2 21.733 5.083-8.432 11.86-20.517 12.452-25.23h10.003l29.556 54.18z"/>
    </g>

    <g id="main-image-inactive" class="inactive">
        <use xlink:href="#main-image-path"/>
    </g>

    <g id="ophan">
        <path d="M0 19.21v91.546h128V19.21H0zm83.062 63.582l-21.088-18.85L44.696 84.32l-12.982-8.33-9.526 16.848-11.144-6.312L27.268 57.9l14.92 9.598 18.5-21.85 21.375 19.1 23.054-25.6 9.518 8.563-31.573 35.082z"/>
    </g>

    <g id="pen">
        <path d="M0 29.375V9.768L9.786 0h19.696l78.698 78.715-29.367 29.5L0 29.375zm118.18 98.572l-19.75-9.795 19.75-19.76 9.82 19.76-9.82 9.795z"/>
    </g>

    <g id="presence">
        <path d="M40.034 55.014h.07c5.5.02 10.666-1.98 14.354-5.938 3.66-3.93 5.757-9.674 5.743-16.812.015-6.903-1.95-12.556-5.54-16.514-3.577-3.98-8.785-6.09-14.5-6.077-5.5-.014-10.675 1.958-14.348 5.89-3.667 3.93-5.757 9.63-5.743 16.763 0 6.89 1.937 12.59 5.52 16.583 3.583 3.98 8.743 6.104 14.444 6.104zM76.917 69.757c-19.792-12.375-53.77-12.375-73.528 0h-.05v.118L0 107.665l4.958 5.69h70.354l4.958-5.69-3.353-37.908zM112.923 0H123l5 5.04v10.092l-25.938 25.34-15.14-15.083 26-25.39zM76.798 45.576l5.035-10.14 10.14 10.14-10.14 5.04-5.035-5.04z"/>
    </g>

    <g id="preview">
        <path d="M64 23.305c-42.438 0-64 41.125-64 41.125s21.562 41.116 64 41.116c42.446 0 64-41.116 64-41.116s-21.554-41.125-64-41.125zm0 66.715c-14.66 0-26.59-12.152-26.59-27.116C37.41 47.92 49.34 35.76 64 35.76c14.67 0 26.598 12.16 26.598 27.144C90.598 77.867 78.67 90.02 64 90.02zM64 49.35c-7.34 0-13.304 6.045-13.304 13.554 0 7.474 5.964 13.57 13.304 13.57s13.33-6.097 13.33-13.57c0-7.51-5.99-13.554-13.33-13.554z"/>
    </g>

    <g id="priority-urgent">
        <path d="M64 0C28.696 0 0 28.68 0 64c0 35.277 28.696 64 64 64 35.33 0 64-28.723 64-64 0-35.32-28.67-64-64-64zm30.277 81.295l-18.482-.027H51.438l-18.5.027-5.902-5.902 34.26-34.285h4.607l34.276 34.285-5.903 5.902z"/>
    </g>

    <g id="priority-very-urgent">
        <path d="M64 0C28.68 0 0 28.68 0 64c0 35.277 28.68 64 64 64 35.33 0 64-28.723 64-64 0-35.32-28.67-64-64-64zm26.446 102.277l-16.17-.02h-21.32l-16.188.02-5.16-5.17 29.973-29.99h4.027l30 29.99-5.16 5.17zm-.008-47.553l-16.16-.036h-21.32l-16.18.036-5.17-5.17 29.974-29.982h4.026l30 29.982-5.17 5.17z"/>
    </g>

</svg>
