<svg xmlns="http://www.w3.org/2000/svg" width="128" height="128" viewBox="0 0 128 128">
    <defs>
        <g id="icon-arrow-down">
            <path d="M0 39l58 46.3 6 5 6-5L128 39l-3-3.8L64 70 3 35.2z"/>
        </g>
        <g id="icon-arrow-up">
            <path d="M0 86.6l58-46.4 6-5 6 5 58 46.4-3 3.7-61-34.8L3 90.3z"/>
        </g>

        <g id="icon-article">
            <path d="M94.8 0H19.4l-8 8v112l8.6 8h87.5l8-8V22L94.7 0zM67.5 112h-40v-12h40v12zm28-24h-68V76h68v12zm0-24h-68V52h68v12zm0-24h-68V28h68v12z"/>
        </g>

        <g id="icon-assigned-to">
            <path d="M64 56c6.8 0 13.2-2.5 17.8-7.4 4.5-4.8 7-12 7-20.7 0-8.6-2.3-15.6-6.8-20.5C77.6 2.5 71.2 0 64 0c-6.7 0-13 2.4-17.6 7.3-4.5 4.8-7 12-7 20.7 0 8.5 2.3 15.5 6.7 20.4 4.6 5 11 7.6 18 7.6zm45.5 18.2C85 59 43 59 18.7 74.2L14.5 121l6.2 7h86.8l6-7-4-46.8z"/>
        </g>

        <g id="icon-check">
            <path d="M128 18.6l-6.3-6.3-86 78L6.4 62.6 0 69l32.5 45.4h3z"/>
        </g>

        <g id="icon-clock">
            <path d="M64 0C28.7 0 0 28.6 0 64c0 35.3 28.7 64 64 64s64-28.7 64-64c0-35.4-28.7-64-64-64zm40.7 69.8L64 73.6 56.8 66 61 11.7h6L71 62l33.7 2v5.8z"/>
        </g>

        <g id="icon-comments">
            <path d="M117.8 6.4H10.2L0 16.3v66.7l10.2 9.4h15.4V124H30l26.3-31.6h61.5L128 83V16.6z"/>
        </g>

        <g id="icon-composer">
            <path d="M12.2 64.8C12.2 16.6 45.2 0 76.8 0c15.3 0 28 2.4 35.6 5.4l1.2 33.4H98l-8-19.2c-3.5-1.5-8.3-3-14.2-3C58.4 16.6 49.6 29 49.6 62c0 38.7 8.4 49.7 27.2 49.7 6 0 11.5-1.8 14.8-3.5l8-20h15l-1.2 33c-8.8 4-20.5 6.8-40 6.8-34.2 0-61.2-17.8-61.2-63.2z"/>
        </g>

        <g id="icon-cross">
            <path d="M0 119.8l8.2 8.2 62.6-57.2L128 8.2 119.8 0 57.2 57.2zm119.8 8.2l8.2-8.2-57.2-62.6L8.2 0 0 8.2l57.2 62.6z"/>
        </g>

        <g id="icon-gallery">
            <path d="M120 33.6h-20l-12-16H40l-12 16H8l-8 7.8v60l8 8h112l8-8v-60l-8-7.8zM64 89.4c-11 0-20-9-20-20s9-20 20-20 20 9 20 20-9 20-20 20z"/>
        </g>

        <g id="icon-interactive">
            <path d="M57.7 112c1.8 1.4 3.2 4 3.2 6v10h47l6.4-66c.2-2-1.3-4.6-3.3-5.5l-36.6-16-6-36.5c-.5-2.2-2.6-4-4.8-4h-5.4C56 0 54 1.8 53.8 4l-6 68.5c-.2 2.2-2 3.2-4 2.2L21 62.5c-2-1-4.6-.3-5.7 1.6l-6 10 48.4 38z"/>
        </g>

        <g id="icon-picture">
            <path xmlns="http://www.w3.org/2000/svg" d="M102.401,0.008h-96L0,6.41v115.196l6.401,6.402h115.196l6.402-6.402v-96L102.401,0.008z M58.295,95.343    C38.33,95.343,20.08,79.16,20.08,59.2c0-19.959,16.179-36.143,36.143-36.143c19.956,0,36.144,15.71,36.144,35.67H58.295V95.343z     M71.509,107.704V71.968h35.401C106.91,91.932,91.473,107.704,71.509,107.704z"/>
        </g>

        <g id="icon-live-site">
            <path d="M25.7 30.4c0 11.6 6.2 19.4 14.6 25l.4.3c-5 3.4-15 11.4-15 20.5 0 7 4.4 13.6 14 15.7-10.2 1.8-21.2 6.3-21.2 17.5v1C7.3 98.7 0 83.4 0 65.7c0-26 15.6-48 37.2-58.4-7 5.3-11.5 13-11.5 23zm50.5 66.8c8 0 12.4 4 12.4 10 0 7-5 12.2-24 12.2-16.6 0-22.3-5.6-22.3-12 0-4.6 2-10.2 10.2-10.2h23.7zm32.6 14c2.2-4.4 3.5-9.5 3.5-15.2 0-17.4-9.3-25-29-25H51.8c-3.4 0-6.3-2.8-6.3-5.8 0-2.2 1.8-4.7 4-6.4 4.8 1.6 8.8 1.7 14.5 1.7 22.5 0 38-11 37.8-30.2 0-11-4.8-18.7-12.5-23.3C112 16.7 128 39 128 65.8c0 18-7.4 34-19.2 45.5zM64 50c-6.3 0-11.5-1.5-11.5-19.4 0-18 5.2-20.2 11.5-20.2 6.5 0 11.5 2.8 11.5 20.2 0 17.5-5.2 19.4-11.5 19.4z"/>
        </g>

        <g id="icon-liveblog">
            <path d="M42.3 0h85.3v32H42.3zm.3 48H128v32H42.5zm-.2 48h85.3v32H42.4zM0 0h23.4v32H0zm0 48h23.4v32H0zm0 48h23.4v32H0z"/>
        </g>

        <symbol id="icon-video" viewBox="0 0 14 14">
            <polygon fill="#666666" points="1.274,2.514 0,3.787 0,10.146 1.282,11.419 8.588,11.419 8.588,2.514 	"/>
            <polygon fill="#666666" points="13.039,2.833 9.859,6.009 9.859,7.921 13.039,11.099 14,11.099 14,2.833 	"/>
        </symbol>

        <g id="icon-main-image">
            <path d="M0 12.4V106l10 9.3h118l-.2-93-9.6-9.3L0 12.5zm113.3 78.8H19.7l4.8-8.4 1.4-2.5 6-10.8 12.3 21.7 5-8.4 12-20.5L73.7 37h10l29.6 54.2z"/>
        </g>

        <g id="icon-ophan">
            <path d="M0 19.2v91.6h128V19.2H0zm83 63.6l-21-19-17.3 20.5-13-8.3-9.5 16.8L11 86.5 27.3 58l15 9.5 18.4-22L82 64.8 105 39l9.6 8.7-31.5 35z"/>
        </g>

        <g id="icon-pen">
            <path d="M0 29.4V9.8L9.8 0h19.7l78.7 78.7-29.4 29.5L0 29.4zM118.2 128L98.4 118l19.8-19.8 9.8 19.8-9.8 9.7z"/>
        </g>
        <g id="icon-incopy">
            <path d="M0 0v128h128V0H0zm43.16 108.518H26.705v-90.17H43.16v90.17zM91.518 96.54c5.43 0 9.196-1.125 12.232-2.397l2.134 11.465c-3.276 1.52-9.706 3.156-17.384 3.156-19.152 0-31.616-12.224-31.616-31.25 0-18.39 12.59-32.75 34.134-32.75 5.68 0 11.473 1.254 14.99 2.893l-2.768 11.58c-2.526-1.125-6.17-2.384-11.723-2.384-11.84 0-18.893 8.688-18.777 19.9 0 12.608 8.188 19.787 18.778 19.787z"/>
        </g>
        <g id="icon-presence">
            <path d="M40 55c5.6 0 10.8-2 14.5-6 3.6-4 5.7-9.6 5.7-16.7 0-7-2-12.6-5.5-16.6-3.6-4-8.8-6-14.5-6-5.5 0-10.7 2-14.4 6C22 19.4 20 25 20 32.2c0 7 2 12.6 5.6 16.6 3.6 4 8.7 6 14.4 6zm37 14.8c-20-12.4-54-12.4-73.6 0L0 108l5 5.6h70.3l5-5.7-3.4-38zM113 0h10l5 5v10l-26 25.5-15-15L113 0zM76.7 45.6l5-10.2L92 45.6l-10.2 5-5-5z"/>
        </g>
        <g id="icon-presence-unavailable">
            <path d="M40 55c5.6 0 10.8-2 14.5-6 3.6-4 5.7-9.6 5.7-16.7 0-7-2-12.6-5.5-16.6-3.6-4-8.8-6-14.5-6-5.5 0-10.7 2-14.4 6C22 19.4 20 25 20 32.2c0 7 2 12.6 5.6 16.6 3.6 4 8.7 6 14.4 6zm37 14.8c-20-12.4-54-12.4-73.6 0L0 108l5 5.6h70.3l5-5.7-3.4-38zM113 0h10l5 5v10l-26 25.5-15-15L113 0zM76.7 45.6l5-10.2L92 45.6l-10.2 5-5-5z"/>
            <path fill="#666666" d="M97.355,566.844c-3.312,0-6,2.689-6,6s2.688,6,6,6c3.311,0,6-2.689,6-6S100.666,566.844,97.355,566.844z M97.355,577.383c-0.66,0-1.205-0.535-1.205-1.201c0-0.668,0.545-1.197,1.205-1.197c0.658,0,1.205,0.529,1.205,1.197 C98.561,576.848,98.014,577.383,97.355,577.383z M97.818,574.348h-0.928l-0.93-5.137l0.459-0.5h1.865l0.459,0.5L97.818,574.348z"/>
            <path fill="#ed5935" d="M64,128C28.709,128,0,99.288,0,64S28.709,0,64,0c35.292,0,64,28.712,64,64S99.292,128,64,128z M64,14.489 c-27.299,0-49.507,22.212-49.507,49.511S36.701,113.511,64,113.511S113.507,91.299,113.507,64S91.299,14.489,64,14.489z"/>
            <polygon fill="#ed5935" points="98.973,109.208 18.792,29.028 25.618,22.198 105.806,102.379 "/>
            <polygon fill="#ed5935" points="25.618,109.212 18.792,102.379 98.973,22.198 105.799,29.028 "/>
        </g>
        <g id="icon-preview">
            <path d="M64 23.3c-42.4 0-64 41-64 41s21.6 41.2 64 41.2 64-41 64-41-21.6-41.2-64-41.2zM64 90c-14.7 0-26.6-12-26.6-27s12-27.2 26.6-27.2c14.7 0 26.6 12 26.6 27S78.6 90 64 90zm0-40.6c-7.3 0-13.3 6-13.3 13.5 0 7.4 6 13.5 13.3 13.5s13.3-6 13.3-13.6-6-13.6-13.3-13.6z"/>
        </g>

        <g id="icon-priority-urgent">
            <path d="M64 0C28.7 0 0 28.7 0 64s28.7 64 64 64 64-28.7 64-64S99.3 0 64 0zm30.3 81.3H33l-6-6 34.3-34.2H66L100 75.5l-6 6z"/>
        </g>

        <g id="icon-priority-very-urgent">
            <path d="M64 0C28.7 0 0 28.7 0 64s28.7 64 64 64 64-28.7 64-64S99.3 0 64 0zm26.4 102.3H36.8L31.6 97l30-30h4l30 30-5.2 5.3zm0-47.6H36.8l-5.2-5 30-30h4l30 30-5.2 5z"/>
        </g>

        <g id="icon-delete">
            <path d="M22.2 115.9L34.3 128h59.6l12.1-12.1V31.6H22.2v84.3zM113.9 7.1H89L81.9 0H46.3l-7.1 7.1H14.3v14.2h99.6V7.1z"/>
        </g>

        <g id="icon-import">
            <path d="M58.2 57V6H70v51l20.8-16.2 5 5-29.7 30h-4l-29.8-30 5.2-5zm58.2 7v46.7H11.6V64l-5.8-5.7H0v58.2l5.8 5.8H122l6-5.8V58.3h-5.8z"/>
        </g>

        <g id="icon-needs-legal">
            <path fill="#666666" d="M97.355,566.844c-3.312,0-6,2.689-6,6c0,3.312,2.688,6,6,6c3.311,0,6-2.688,6-6
            C103.355,569.533,100.666,566.844,97.355,566.844z M97.355,577.383c-0.66,0-1.205-0.535-1.205-1.201
            c0-0.668,0.545-1.196,1.205-1.196c0.658,0,1.205,0.528,1.205,1.196C98.561,576.848,98.014,577.383,97.355,577.383z M97.818,574.347
            h-0.928l-0.931-5.137l0.459-0.499h1.865l0.459,0.499L97.818,574.347z"/>
            <path d="M79.225,70.234c-2.779,1.431-6.207,0.334-7.643-2.454l-9.844-19.113c-1.435-2.788-0.339-6.211,2.449-7.654l25.419-13.08
            c2.787-1.435,6.216-0.338,7.649,2.45l9.835,19.111c1.444,2.788,0.338,6.21-2.45,7.65L79.225,70.234z"/>
            <path d="M87.099,94.986c-4.45,2.291-9.906,0.543-12.201-3.906l0,0c-2.294-4.451-0.538-9.912,3.903-12.203l31.587-16.26
            c4.45-2.294,9.917-0.539,12.202,3.905l0,0c2.295,4.451,0.549,9.912-3.903,12.207L87.099,94.986z"/>
            <path d="M56.839,36.1c-4.45,2.289-9.917,0.543-12.201-3.907l0,0c-2.294-4.452-0.54-9.917,3.903-12.208L80.137,3.723
            c4.442-2.29,9.907-0.54,12.201,3.906l0,0c2.286,4.451,0.541,9.917-3.912,12.207L56.839,36.1z"/>
            <path d="M16.936,96.517C11.634,99.249,5.117,97.16,2.383,91.85l-1.169-2.253c-2.731-5.305-0.64-11.826,4.671-14.56l41.742-21.494
            c5.301-2.733,11.817-0.645,14.561,4.662l1.16,2.266c2.731,5.302,0.64,11.82-4.67,14.552L16.936,96.517z"/>
            <path d="M128.002,117.081c0,4.409-3.571,7.986-7.98,7.986H62.582c-4.41,0-7.99-3.577-7.99-7.986l0,0c0-4.405,3.58-7.981,7.99-7.981
            h57.439C124.431,109.1,128.002,112.676,128.002,117.081L128.002,117.081z"/>
        </g>

        <g id="icon-needs-legal-check">
            <path d="M63.986,0C28.639,0,0,28.646,0,64c0,35.342,28.639,64,63.986,64c35.333,0,64-28.658,64-64C127.986,28.646,99.319,0,63.986,0
            z M59.611,89.543l-6.515,5.354L46.5,89.508L16,61.806l3.236-4.049l33.86,15.14l55.667-39.778l3.208,4.049L59.611,89.543z"/>
        </g>

        <g id="icon-optimised-for-web">
            <path d="M128.001,89.657v-8.001h-9.829c0.969-4.188,1.539-8.798,1.539-13.971c0-6.325-1.492-12.353-4.157-17.869l0.055,0.039
            	c0,0,2.337-10.501,2.188-18.471s-2.868-18.471-2.868-18.471s-10.337,4.313-14.353,6.931c-2.282,1.484-5.845,4.594-8.549,7.032
            	c-8.313-4.141-17.971-6.556-28.323-6.556c-10.205,0-19.745,2.344-27.98,6.38c-2.407-2.516-5.594-5.728-7.837-7.442
            	c-3.993-3.055-14.611-6.345-14.611-6.345S9.471,26.774,9.463,32.501c-0.016,8.642,2.344,17.354,2.344,17.354l0.039-0.031
            	C9.189,55.34,7.697,61.36,7.697,67.686c0,5.548,0.656,10.438,1.773,14.861h-9.47v8.001h12.22c0.328,0.688,0.711,1.312,1.07,1.969
            	l-7.79,8.423l5.876,5.438l6.571-7.11c10.142,11.532,26.839,15.775,45.756,15.775c19.369,0,36.442-4.415,46.498-16.588l6.501,7.032
            	l5.875-5.423l-7.907-8.563c0.305-0.609,0.617-1.203,0.898-1.844H128.001z M29.919,66.717c0-5.517,3.234-10.001,7.204-10.001
            	s7.204,4.485,7.204,10.001s-3.235,10.001-7.204,10.001S29.919,72.233,29.919,66.717z M74.283,99.658c-0.328,0-0.656-0.016-1-0.039
            	c-4.879-0.305-7.954-2.734-9.731-5.274c-1.778,2.54-4.852,4.978-9.732,5.282c-0.344,0.016-0.676,0.031-1.004,0.031
            	c-7.274,0-10.294-5.267-10.88-8.165l3.922-0.797c0.118,0.539,1.258,5.353,7.712,4.938c5.954-0.375,7.575-4.945,7.892-6.086
            	c-2.32-0.625-3.961-2.126-3.961-3.892c0-2.312,2.821-4.203,6.306-4.203c3.477,0,6.298,1.891,6.298,4.203
            	c0,1.883-1.887,3.415-4.442,3.954c0.371,1.273,2.062,5.656,7.872,6.016c6.603,0.618,7.665-4.703,7.704-4.922l3.923,0.781
            	C84.582,94.392,81.558,99.658,74.283,99.658z M89.355,76.718c-3.977,0-7.204-4.484-7.204-10.001s3.228-10.001,7.204-10.001
            	c3.97,0,7.204,4.485,7.204,10.001S93.325,76.718,89.355,76.718z"/>
        </g>
        <g id="icon-optimised-for-web-changed">
            <path d="M128,39.156c0-14.672-11.906-26.562-26.594-26.562c-14.672,0-26.562,11.891-26.562,26.562c0,0.805,0.039,1.602,0.109,2.383
                c-3.445-0.734-7.117-1.133-10.969-1.133c-3.844,0-7.5,0.383-10.938,1.109c0.07-0.773,0.109-1.562,0.109-2.359
                c0-14.672-11.906-26.562-26.578-26.562C11.891,12.594,0,24.484,0,39.156C0,53.32,11.062,64.898,25.023,65.703
                c-0.672,2.562-1.039,5.258-1.039,8.078c0,19.375,28.094,40.984,40,40.984c11.938,0,40-21.422,40-40.781
                c0-2.883-0.375-5.648-1.086-8.273C116.891,64.93,128,53.344,128,39.156z M30.125,54.297c-0.406,0.031-0.828,0.125-1.25,0.125
                c-6.625,0-12-5.375-12-12.016c0-6.609,5.375-11.984,12-11.984s12,5.375,12,11.984c0,1.047-0.172,2.031-0.422,2.984
                C35.953,47.328,32.391,50.438,30.125,54.297z M44.445,83.992c-4.625,0-8.406-5.25-8.406-11.656c0-6.438,3.781-11.672,8.406-11.672
                s8.398,5.234,8.398,11.672C52.844,78.742,49.07,83.992,44.445,83.992z M64.031,107.172c-3.312,0-6-2.688-6-6
                c0-3.297,2.688-5.984,6-5.984c3.297,0,6,2.688,6,5.984C70.031,104.484,67.328,107.172,64.031,107.172z M83.648,83.992
                c-4.656,0-8.406-5.219-8.406-11.656s3.75-11.672,8.406-11.672c4.625,0,8.375,5.234,8.375,11.672
                C92.023,78.742,88.273,83.992,83.648,83.992z M98.781,54.516c-0.422,0-0.844-0.078-1.25-0.125
                c-2.266-3.859-5.828-6.969-10.328-8.906c-0.25-0.953-0.422-1.938-0.422-2.969c0-6.625,5.375-12,12-12s12,5.375,12,12
                S105.406,54.516,98.781,54.516z"/>
            <path d="M44.992,67c-2.656,0-4.797,2.578-4.797,5.766c0,3.18,2.141,5.758,4.797,5.758c2.648,0,4.805-2.578,4.805-5.758
                C49.797,69.578,47.641,67,44.992,67z"/>
            <path d="M82.961,67.086c-2.656,0-4.805,2.57-4.805,5.758c0,3.18,2.148,5.758,4.805,5.758s4.797-2.578,4.797-5.758
                C87.758,69.656,85.617,67.086,82.961,67.086z"/>
        </g>

        <g id="icon-view-versions">
            <path fill="#666666" d="M97.355,566.844c-3.312,0-6,2.689-6,6s2.688,6,6,6c3.311,0,6-2.689,6-6S100.666,566.844,97.355,566.844z
                 M97.355,577.383c-0.66,0-1.205-0.535-1.205-1.201c0-0.668,0.545-1.197,1.205-1.197c0.658,0,1.205,0.529,1.205,1.197
                 C98.561,576.848,98.014,577.383,97.355,577.383z M97.818,574.347h-0.928l-0.93-5.137l0.459-0.499h1.865l0.459,0.499L97.818,574.347z"/>
            <polygon points="113.197,127.994 44.153,127.994 34.756,119.147 34.756,99.947 45.075,99.947 45.075,114.693 48.244,117.684
                 108.937,117.684 111.834,114.782 111.834,46.384 99.416,33.103 75.781,33.103 75.781,22.792 103.894,22.792 122.152,42.31
                 122.152,119.059"/>
            <path d="M73.427-0.006H12.354L5.893,6.478v90.829l6.863,6.472h70.958l6.477-6.472V17.927L73.427-0.006z M51.288,90.775H18.853
                 v-9.714h32.435V90.775z M73.984,71.332H18.853v-9.699h55.131V71.332z M73.984,51.873H18.853v-9.729h55.131V51.873z M73.984,32.421
                 H18.853v-9.722h55.131V32.421z"/>
         </g>

        <g id="icon-priority-low">
            <path d="M64 0C28.7 0 0 28.7 0 64s28.7 64 64 64 64-28.7 64-64S99.3 0 64 0zm30.3 81.3H33l-6-6 34.3-34.2H66L100 75.5l-6 6z"/>
        </g>

        <g id="icon-priority-very-low">
            <path d="M64 0C28.7 0 0 28.7 0 64s28.7 64 64 64 64-28.7 64-64S99.3 0 64 0zm26.4 102.3H36.8L31.6 97l30-30h4l30 30-5.2 5.3zm0-47.6H36.8l-5.2-5 30-30h4l30 30-5.2 5z"/>
        </g>

    </defs>
</svg>
