<svg xmlns="http://www.w3.org/2000/svg" width="128" height="128" viewBox="0 0 128 128"><path fill="#666" d="M97.355 566.844c-3.312 0-6 2.69-6 6s2.688 6 6 6c3.31 0 6-2.69 6-6s-2.69-6-6-6zm0 10.54c-.66 0-1.205-.536-1.205-1.202 0-.668.545-1.198 1.205-1.198.658 0 1.205.53 1.205 1.198 0 .666-.546 1.2-1.205 1.2zm.463-3.037h-.928l-.93-5.137.46-.5h1.865l.46.5-.927 5.137z"/><path d="M57.682 112.02c1.772 1.376 3.19 4.022 3.19 5.878V128h47.16l6.325-65.882c.242-2.2-1.23-4.757-3.285-5.652L74.36 40.426 68.296 3.952c-.373-2.173-2.5-3.95-4.72-3.95h-5.392c-2.22 0-4.197 1.787-4.403 4.006l-6.007 68.53c-.205 2.192-1.96 3.183-3.955 2.124L20.95 62.51c-1.997-1.045-4.516-.317-5.673 1.585l-5.95 10.01L57.68 112.02z"/></svg>