<svg xmlns="http://www.w3.org/2000/svg" width="128" height="128" viewBox="0 0 128 128"><path fill="#666" d="M97.355 566.844c-3.312 0-6 2.69-6 6s2.688 6 6 6c3.31 0 6-2.69 6-6s-2.69-6-6-6zm0 10.54c-.66 0-1.205-.536-1.205-1.202 0-.668.545-1.198 1.205-1.198.658 0 1.205.53 1.205 1.198 0 .666-.546 1.2-1.205 1.2zm.463-3.037h-.928l-.93-5.137.46-.5h1.865l.46.5-.927 5.137z"/><g fill="#231F20"><path d="M42.25.018h85.303v31.99H42.25zM42.598 48.018h85.304v31.99H42.598zM42.438 96.018h85.285V128H42.438zM.026 0h23.41v31.99H.027zM0 47.938h23.4V79.92H0zM0 95.875h23.41v31.982H0z"/></g></svg>