<svg xmlns="http://www.w3.org/2000/svg" width="128" height="128" viewBox="0 0 128 128"><path fill="#666" d="M97.355 566.844c-3.312 0-6 2.69-6 6s2.688 6 6 6c3.31 0 6-2.69 6-6s-2.69-6-6-6zm0 10.54c-.66 0-1.205-.536-1.205-1.202 0-.668.545-1.198 1.205-1.198.658 0 1.205.53 1.205 1.198 0 .666-.546 1.2-1.205 1.2zm.463-3.037h-.928l-.93-5.137.46-.5h1.865l.46.5-.927 5.137z"/><path fill="#231F20" d="M0 12.432v93.606l9.86 9.227h108.36l9.78.006-.187-92.986-9.593-9.236L0 12.432zm113.3 78.816H19.713l4.77-8.432 1.43-2.492 6.234-10.81 12.2 21.733 5.083-8.432 11.86-20.517 12.452-25.23h10.003l29.556 54.18z"/></svg>