<svg xmlns="http://www.w3.org/2000/svg" width="128" height="128" viewBox="0 0 128 128"><path fill="#666" d="M97.355 566.844c-3.312 0-6 2.69-6 6s2.688 6 6 6c3.31 0 6-2.69 6-6s-2.69-6-6-6zm0 10.54c-.66 0-1.205-.536-1.205-1.202 0-.668.545-1.198 1.205-1.198.658 0 1.205.53 1.205 1.198 0 .666-.546 1.2-1.205 1.2zm.463-3.037h-.928l-.93-5.137.46-.5h1.865l.46.5-.927 5.137z"/><g fill="#231F20"><path d="M64 23.305c-42.438 0-64 41.125-64 41.125s21.562 41.116 64 41.116c42.446 0 64-41.116 64-41.116s-21.554-41.125-64-41.125zm0 66.715c-14.66 0-26.59-12.152-26.59-27.116C37.41 47.92 49.34 35.76 64 35.76c14.67 0 26.598 12.16 26.598 27.144C90.598 77.867 78.67 90.02 64 90.02zM64 49.35c-7.34 0-13.304 6.045-13.304 13.554 0 7.474 5.964 13.57 13.304 13.57s13.33-6.097 13.33-13.57c0-7.51-5.99-13.554-13.33-13.554z"/></g></svg>