<svg xmlns="http://www.w3.org/2000/svg" width="128" height="128" viewBox="0 0 128 128"><path fill="#666" d="M97.355 566.844c-3.312 0-6 2.69-6 6s2.688 6 6 6c3.31 0 6-2.69 6-6s-2.69-6-6-6zm0 10.54c-.66 0-1.205-.536-1.205-1.202 0-.668.545-1.198 1.205-1.198.658 0 1.205.53 1.205 1.198 0 .666-.546 1.2-1.205 1.2zm.463-3.037h-.928l-.93-5.137.46-.5h1.865l.46.5-.927 5.137z"/><path fill="#231F20" d="M64 0C28.68 0 0 28.68 0 64c0 35.277 28.68 64 64 64 35.33 0 64-28.723 64-64 0-35.32-28.67-64-64-64zm26.446 102.277l-16.17-.02h-21.32l-16.188.02-5.16-5.17 29.973-29.99h4.027l30 29.99-5.16 5.17zm-.008-47.553l-16.16-.036h-21.32l-16.18.036-5.17-5.17 29.974-29.982h4.026l30 29.982-5.17 5.17z"/></svg>