<?xml version="1.0" encoding="utf-8"?>
<!-- Generator: Adobe Illustrator 16.0.1, SVG Export Plug-In . SVG Version: 6.00 Build 0)  -->
<!DOCTYPE svg PUBLIC "-//W3C//DTD SVG 1.1//EN" "http://www.w3.org/Graphics/SVG/1.1/DTD/svg11.dtd">
<svg version="1.1" id="Layer_1" xmlns="http://www.w3.org/2000/svg" xmlns:xlink="http://www.w3.org/1999/xlink" x="0px" y="0px"
	 width="128px" height="128px" viewBox="0 0 128 128" enable-background="new 0 0 128 128" xml:space="preserve">
<path fill="#666666" d="M97.355,566.844c-3.312,0-6,2.689-6,6s2.688,6,6,6c3.311,0,6-2.689,6-6S100.666,566.844,97.355,566.844z
	 M97.355,577.383c-0.66,0-1.205-0.535-1.205-1.201c0-0.668,0.545-1.197,1.205-1.197c0.658,0,1.205,0.529,1.205,1.197
	C98.561,576.848,98.014,577.383,97.355,577.383z M97.818,574.347h-0.928l-0.93-5.137l0.459-0.499h1.865l0.459,0.499L97.818,574.347z
	"/>
<g>
	<polygon points="100.696,4.571 78.595,4.571 78.595,0 63.934,0 63.897,0 51.808,0 51.808,4.571 27.21,4.571 21.067,10.538 
		21.067,20.689 107.987,20.689 107.987,10.538 108.045,10.538 	"/>
	<polygon points="63.934,33.114 19.809,33.114 27.156,120.764 27.272,120.764 34.509,128 63.897,128 93.232,128 100.531,120.754 
		100.581,120.754 100.59,120.705 100.639,120.652 100.59,120.652 107.987,33.114 	"/>
</g>
</svg>
