<svg xmlns="http://www.w3.org/2000/svg" width="128" height="128" viewBox="0 0 128 128"><path fill="#231F20" d="M25.74 30.41c0 11.635 6.117 19.35 14.546 25.027l.438.286c-4.946 3.35-15.125 11.34-15.125 20.5 0 6.99 4.516 13.536 13.972 15.724-10.045 1.884-21.1 6.393-21.1 17.59v.874C7.27 98.78 0 83.36 0 65.76 0 39.732 15.572 17.902 37.24 7.43c-7.124 5.23-11.5 13.09-11.5 22.98zm50.484 66.77c8 0 12.366 4.07 12.366 10.035 0 6.982-5.1 12.223-24 12.223-16.58 0-22.26-5.678-22.26-11.928 0-4.66 2.027-10.33 10.18-10.33h23.714zm32.588 14.106c2.17-4.51 3.482-9.6 3.482-15.26C112.294 78.563 102.99 71 83.348 71H51.786c-3.34 0-6.26-2.768-6.26-5.83 0-2.178 1.75-4.643 4.072-6.384 4.652 1.59 8.732 1.74 14.402 1.74 22.545 0 38.116-11.06 37.822-30.258-.152-10.91-4.804-18.624-12.5-23.268C111.857 16.732 128 39.135 128 65.76c0 17.892-7.41 33.892-19.188 45.526zM64 49.76c-6.25 0-11.49-1.465-11.49-19.35 0-17.892 5.24-20.213 11.49-20.213 6.545 0 11.5 2.76 11.5 20.214 0 17.448-5.24 19.35-11.5 19.35z"/></svg>