<svg xmlns="http://www.w3.org/2000/svg" width="128" height="128" viewBox="0 0 128 128"><path d="M63.967 55.976h.086c6.79.025 13.168-2.444 17.722-7.33 4.518-4.853 7.106-11.943 7.09-20.756.017-8.522-2.41-15.5-6.84-20.387C77.605 2.59 71.175-.017 64.12 0c-6.79-.017-13.176 2.418-17.71 7.27-4.528 4.853-7.11 11.892-7.092 20.697 0 8.504 2.393 15.543 6.817 20.473 4.424 4.912 10.794 7.536 17.832 7.536zm45.533 18.2c-24.434-15.277-66.384-15.277-90.773 0h-.06v.146l-4.125 46.656L20.664 128h86.855l6.12-7.02-4.14-46.804z" fill="#231F20"/></svg>