<svg xmlns="http://www.w3.org/2000/svg">
  <path d="M60.73 0.02L61.12 0.04L61.51 0.08L61.89 0.12L62.28 0.17L62.66 0.23L63.04 0.31L63.42 0.39L63.8 0.48L64.18 0.58L64.55 0.69L64.92 0.81L65.3 0.94L65.67 1.08L66.04 1.22L66.4 1.38L66.77 1.55L67.13 1.73L67.49 1.91L67.85 2.11L68.21 2.31L68.57 2.53L68.92 2.75L69.28 2.98L69.63 3.23L69.98 3.48L70.33 3.74L70.67 4.01L71.02 4.29L71.36 4.58L71.7 4.88L72.04 5.19L72.38 5.51L72.71 5.84L73.04 6.17L73.37 6.52L73.7 6.88L74.03 7.24L74.36 7.62L74.63 7.94L74.91 8.28L75.18 8.62L75.45 8.96L75.72 9.31L75.99 9.66L76.25 10.02L76.51 10.38L76.77 10.75L77.03 11.13L77.29 11.51L77.54 11.89L77.79 12.28L78.04 12.67L78.29 13.07L78.53 13.48L78.78 13.88L79.02 14.3L79.25 14.72L79.49 15.14L79.72 15.57L79.95 16L80.18 16.44L80.41 16.88L80.63 17.33L80.86 17.78L81.08 18.24L81.29 18.7L81.51 19.17L81.72 19.64L81.93 20.11L82.14 20.6L82.35 21.08L82.55 21.57L82.75 22.07L82.95 22.57L83.14 23.07L83.34 23.58L83.53 24.09L83.72 24.61L84.28 24.51L84.85 24.42L85.41 24.33L85.96 24.24L86.52 24.16L87.07 24.09L87.61 24.01L88.16 23.94L88.7 23.88L89.23 23.82L89.77 23.76L90.3 23.71L90.83 23.66L91.35 23.62L91.87 23.58L92.39 23.54L92.91 23.51L93.42 23.48L93.93 23.46L94.43 23.44L94.93 23.43L95.43 23.42L95.93 23.41L96.42 23.41L96.91 23.41L97.39 23.41L97.88 23.42L98.35 23.44L98.83 23.46L99.3 23.48L99.77 23.5L100.23 23.54L100.7 23.57L101.16 23.61L101.61 23.65L102.06 23.7L102.51 23.75L102.95 23.81L103.4 23.87L103.83 23.93L104.34 24.01L104.83 24.1L105.32 24.19L105.8 24.29L106.28 24.39L106.74 24.5L107.2 24.62L107.65 24.75L108.1 24.88L108.53 25.01L108.96 25.16L109.38 25.31L109.79 25.46L110.2 25.62L110.59 25.79L110.98 25.97L111.36 26.15L111.74 26.34L112.1 26.53L112.46 26.73L112.81 26.93L113.15 27.15L113.49 27.36L113.81 27.59L114.13 27.82L114.44 28.06L114.74 28.3L115.04 28.55L115.33 28.81L115.61 29.07L115.88 29.33L116.14 29.61L116.39 29.89L116.64 30.18L116.88 30.47L117.11 30.77L117.33 31.07L117.55 31.38L117.76 31.7L117.96 32.02L118.14 32.35L118.32 32.68L118.49 33.01L118.66 33.35L118.81 33.69L118.95 34.04L119.08 34.39L119.21 34.74L119.32 35.09L119.42 35.45L119.52 35.82L119.61 36.18L119.68 36.55L119.75 36.92L119.81 37.3L119.86 37.68L119.9 38.06L119.93 38.45L119.95 38.84L119.96 39.23L119.96 39.63L119.95 40.02L119.93 40.43L119.91 40.83L119.87 41.24L119.83 41.65L119.77 42.07L119.71 42.49L119.64 42.91L119.55 43.34L119.46 43.76L119.36 44.19L119.25 44.63L119.13 45.07L119 45.51L118.86 45.95L118.71 46.4L118.55 46.85L118.39 47.3L118.21 47.76L118.05 48.15L117.89 48.55L117.72 48.94L117.54 49.34L117.36 49.74L117.17 50.14L116.98 50.54L116.78 50.94L116.57 51.34L116.36 51.74L116.15 52.14L115.93 52.54L115.7 52.95L115.47 53.35L115.23 53.75L114.99 54.16L114.74 54.56L114.49 54.97L114.23 55.38L113.96 55.79L113.69 56.19L113.41 56.6L113.13 57.01L112.85 57.42L112.55 57.83L112.26 58.24L111.95 58.65L111.65 59.07L111.33 59.48L111.01 59.89L110.69 60.3L110.36 60.72L110.02 61.13L109.68 61.55L109.34 61.96L108.98 62.38L108.63 62.79L108.26 63.21L107.9 63.62L107.52 64.04L107.89 64.46L108.26 64.87L108.62 65.29L108.97 65.71L109.32 66.12L109.67 66.54L110 66.95L110.34 67.37L110.67 67.78L110.99 68.2L111.3 68.61L111.62 69.02L111.92 69.43L112.22 69.85L112.52 70.26L112.81 70.67L113.09 71.08L113.37 71.49L113.65 71.89L113.92 72.3L114.18 72.71L114.44 73.12L114.69 73.52L114.94 73.93L115.18 74.33L115.41 74.74L115.64 75.14L115.87 75.54L116.09 75.94L116.3 76.34L116.51 76.74L116.71 77.14L116.91 77.54L117.1 77.94L117.29 78.34L117.47 78.73L117.65 79.13L117.82 79.52L117.98 79.91L118.14 80.31L118.32 80.76L118.48 81.22L118.64 81.67L118.79 82.11L118.93 82.56L119.06 83L119.18 83.44L119.29 83.87L119.39 84.3L119.49 84.73L119.57 85.16L119.64 85.58L119.71 86L119.76 86.41L119.81 86.82L119.84 87.23L119.87 87.64L119.89 88.04L119.89 88.44L119.89 88.84L119.88 89.23L119.86 89.62L119.83 90L119.79 90.39L119.74 90.77L119.68 91.14L119.62 91.51L119.54 91.88L119.45 92.25L119.36 92.61L119.25 92.97L119.14 93.33L119.02 93.68L118.88 94.03L118.74 94.37L118.59 94.71L118.43 95.05L118.26 95.38L118.08 95.71L117.89 96.04L117.68 96.37L117.47 96.68L117.25 97L117.03 97.3L116.79 97.6L116.55 97.89L116.3 98.18L116.04 98.46L115.78 98.74L115.5 99L115.22 99.27L114.93 99.52L114.64 99.77L114.33 100.02L114.02 100.25L113.7 100.49L113.37 100.71L113.04 100.93L112.7 101.14L112.35 101.35L111.99 101.55L111.62 101.74L111.25 101.93L110.87 102.11L110.48 102.29L110.09 102.46L109.68 102.62L109.27 102.78L108.86 102.93L108.43 103.07L108 103.21L107.56 103.34L107.11 103.47L106.65 103.59L106.19 103.7L105.72 103.81L105.24 103.91L104.76 104L104.26 104.09L103.76 104.17L103.33 104.23L102.89 104.3L102.45 104.35L102 104.4L101.55 104.45L101.1 104.5L100.65 104.53L100.19 104.57L99.72 104.6L99.26 104.62L98.79 104.65L98.31 104.66L97.84 104.67L97.36 104.68L96.87 104.69L96.39 104.69L95.9 104.68L95.4 104.67L94.91 104.66L94.41 104.64L93.9 104.62L93.4 104.59L92.89 104.56L92.37 104.52L91.86 104.48L91.33 104.44L90.81 104.39L90.28 104.33L89.75 104.28L89.22 104.22L88.68 104.15L88.14 104.08L87.6 104L87.06 103.92L86.51 103.84L85.95 103.75L85.4 103.66L84.84 103.56L84.28 103.46L83.71 103.35L83.52 103.87L83.33 104.39L83.14 104.9L82.94 105.41L82.74 105.91L82.54 106.4L82.34 106.9L82.13 107.38L81.92 107.87L81.71 108.34L81.5 108.82L81.29 109.28L81.07 109.75L80.85 110.21L80.63 110.66L80.4 111.11L80.18 111.55L79.95 111.99L79.72 112.43L79.48 112.85L79.25 113.28L79.01 113.7L78.77 114.11L78.53 114.52L78.29 114.93L78.04 115.33L77.79 115.72L77.54 116.11L77.29 116.49L77.03 116.87L76.77 117.25L76.51 117.62L76.25 117.98L75.99 118.34L75.72 118.69L75.45 119.04L75.18 119.38L74.91 119.72L74.63 120.06L74.36 120.38L74.03 120.76L73.7 121.12L73.37 121.48L73.04 121.83L72.71 122.16L72.38 122.49L72.04 122.81L71.7 123.12L71.36 123.42L71.02 123.71L70.67 123.99L70.33 124.26L69.98 124.52L69.63 124.77L69.28 125.01L68.92 125.25L68.57 125.47L68.21 125.69L67.85 125.89L67.49 126.09L67.13 126.27L66.77 126.45L66.4 126.62L66.04 126.77L65.67 126.92L65.3 127.06L64.93 127.19L64.55 127.31L64.18 127.42L63.8 127.52L63.42 127.61L63.04 127.69L62.66 127.76L62.28 127.83L61.89 127.88L61.51 127.92L61.12 127.96L60.73 127.98L60.34 128L59.95 128L59.56 128L59.17 127.98L58.78 127.96L58.39 127.92L58 127.88L57.61 127.83L57.23 127.77L56.85 127.69L56.47 127.61L56.09 127.52L55.71 127.42L55.34 127.31L54.97 127.19L54.59 127.06L54.22 126.92L53.86 126.78L53.49 126.62L53.12 126.45L52.76 126.27L52.4 126.09L52.04 125.89L51.68 125.69L51.33 125.47L50.97 125.25L50.62 125.01L50.27 124.77L49.92 124.52L49.58 124.26L49.23 123.99L48.89 123.71L48.55 123.42L48.21 123.12L47.87 122.81L47.54 122.49L47.2 122.16L46.87 121.82L46.54 121.48L46.22 121.12L45.89 120.76L45.57 120.38L45.29 120.05L45.02 119.72L44.75 119.38L44.48 119.03L44.21 118.68L43.94 118.33L43.68 117.97L43.42 117.61L43.16 117.24L42.9 116.86L42.65 116.48L42.4 116.1L42.15 115.71L41.9 115.32L41.65 114.92L41.41 114.51L41.17 114.11L40.93 113.69L40.69 113.27L40.46 112.85L40.23 112.42L40 111.99L39.77 111.55L39.54 111.11L39.32 110.66L39.1 110.21L38.88 109.76L38.66 109.3L38.45 108.83L38.24 108.36L38.03 107.88L37.82 107.4L37.62 106.92L37.41 106.43L37.21 105.94L37.02 105.44L36.82 104.94L36.63 104.43L36.44 103.92L36.25 103.4L35.68 103.5L35.12 103.6L34.56 103.69L34.01 103.78L33.45 103.86L32.9 103.94L32.36 104.02L31.81 104.09L31.27 104.15L30.73 104.22L30.2 104.27L29.67 104.33L29.14 104.38L28.62 104.42L28.1 104.46L27.58 104.5L27.06 104.53L26.55 104.56L26.05 104.59L25.54 104.6L25.04 104.62L24.54 104.63L24.05 104.64L23.55 104.64L23.07 104.64L22.58 104.63L22.1 104.62L21.62 104.61L21.15 104.59L20.68 104.57L20.21 104.54L19.75 104.51L19.29 104.47L18.83 104.43L18.37 104.39L17.92 104.34L17.48 104.29L17.03 104.23L16.59 104.17L16.16 104.1L15.66 104.02L15.16 103.93L14.67 103.84L14.19 103.74L13.72 103.63L13.26 103.52L12.8 103.4L12.35 103.27L11.91 103.14L11.48 103L11.05 102.86L10.63 102.71L10.22 102.55L9.82 102.39L9.42 102.22L9.03 102.04L8.65 101.86L8.28 101.67L7.92 101.48L7.56 101.28L7.21 101.07L6.87 100.86L6.54 100.64L6.21 100.41L5.9 100.18L5.59 99.94L5.28 99.7L4.99 99.45L4.7 99.19L4.43 98.93L4.16 98.66L3.89 98.39L3.64 98.11L3.39 97.82L3.16 97.53L2.92 97.23L2.7 96.93L2.49 96.61L2.28 96.3L2.08 95.97L1.89 95.65L1.71 95.32L1.54 94.98L1.38 94.65L1.23 94.31L1.09 93.96L0.95 93.62L0.83 93.26L0.71 92.91L0.61 92.55L0.51 92.19L0.42 91.83L0.35 91.46L0.28 91.09L0.22 90.71L0.17 90.33L0.13 89.95L0.1 89.57L0.08 89.18L0.06 88.79L0.06 88.39L0.07 87.99L0.08 87.59L0.11 87.19L0.14 86.78L0.19 86.37L0.24 85.96L0.3 85.54L0.38 85.12L0.46 84.69L0.55 84.27L0.65 83.84L0.76 83.4L0.88 82.97L1.01 82.53L1.14 82.09L1.29 81.64L1.45 81.19L1.61 80.74L1.79 80.29L1.95 79.9L2.11 79.5L2.28 79.11L2.45 78.71L2.63 78.32L2.82 77.92L3.01 77.53L3.21 77.13L3.41 76.73L3.62 76.33L3.83 75.93L4.05 75.53L4.28 75.13L4.51 74.72L4.75 74.32L4.99 73.92L5.24 73.51L5.49 73.11L5.75 72.7L6.02 72.29L6.29 71.89L6.56 71.48L6.84 71.07L7.13 70.66L7.43 70.25L7.72 69.84L8.03 69.43L8.34 69.02L8.65 68.6L8.97 68.19L9.3 67.78L9.63 67.36L9.97 66.95L10.31 66.53L10.66 66.12L11.02 65.7L11.38 65.28L11.74 64.87L12.11 64.45L12.49 64.03L12.11 63.61L11.74 63.2L11.37 62.78L11.01 62.37L10.66 61.95L10.31 61.54L9.97 61.12L9.63 60.71L9.3 60.29L8.97 59.88L8.65 59.47L8.33 59.05L8.02 58.64L7.72 58.23L7.42 57.82L7.12 57.41L6.84 57L6.55 56.59L6.27 56.18L6 55.77L5.74 55.37L5.48 54.96L5.22 54.55L4.97 54.15L4.73 53.74L4.49 53.34L4.26 52.94L4.03 52.53L3.81 52.13L3.59 51.73L3.38 51.33L3.18 50.93L2.98 50.53L2.79 50.13L2.6 49.73L2.42 49.34L2.24 48.94L2.07 48.55L1.91 48.15L1.75 47.76L1.57 47.3L1.4 46.85L1.25 46.4L1.1 45.95L0.96 45.51L0.83 45.07L0.71 44.63L0.6 44.2L0.5 43.76L0.41 43.34L0.32 42.91L0.25 42.49L0.19 42.07L0.13 41.66L0.09 41.24L0.05 40.83L0.02 40.43L0.01 40.03L0 39.63L0 39.23L0.01 38.84L0.03 38.45L0.06 38.06L0.1 37.68L0.15 37.3L0.21 36.93L0.28 36.55L0.35 36.18L0.44 35.82L0.53 35.46L0.64 35.1L0.75 34.74L0.88 34.39L1.01 34.04L1.15 33.7L1.3 33.36L1.46 33.02L1.64 32.68L1.82 32.35L2 32.03L2.2 31.7L2.41 31.39L2.63 31.07L2.85 30.77L3.08 30.47L3.32 30.18L3.57 29.89L3.82 29.61L4.09 29.34L4.36 29.07L4.64 28.81L4.92 28.55L5.22 28.3L5.52 28.06L5.83 27.82L6.15 27.59L6.48 27.37L6.81 27.15L7.15 26.93L7.5 26.73L7.86 26.53L8.23 26.33L8.6 26.15L8.98 25.97L9.37 25.79L9.77 25.62L10.17 25.46L10.59 25.31L11.01 25.16L11.43 25.01L11.87 24.88L12.31 24.74L12.76 24.62L13.22 24.5L13.69 24.39L14.16 24.28L14.64 24.19L15.13 24.09L15.63 24.01L16.13 23.93L16.57 23.86L17.01 23.8L17.45 23.75L17.9 23.7L18.35 23.65L18.81 23.61L19.27 23.57L19.73 23.54L20.19 23.5L20.66 23.48L21.13 23.46L21.61 23.44L22.09 23.43L22.57 23.42L23.05 23.41L23.54 23.41L24.03 23.42L24.53 23.42L25.03 23.44L25.53 23.45L26.04 23.47L26.54 23.5L27.06 23.53L27.57 23.56L28.09 23.6L28.61 23.64L29.13 23.68L29.66 23.73L30.19 23.79L30.73 23.85L31.27 23.91L31.81 23.98L32.35 24.05L32.9 24.12L33.45 24.2L34 24.29L34.56 24.38L35.12 24.47L35.68 24.57L36.24 24.67L36.43 24.15L36.62 23.64L36.81 23.13L37 22.63L37.2 22.13L37.39 21.63L37.59 21.14L37.8 20.66L38 20.18L38.21 19.7L38.42 19.23L38.63 18.77L38.85 18.3L39.06 17.85L39.28 17.39L39.51 16.95L39.73 16.5L39.96 16.07L40.19 15.63L40.42 15.2L40.65 14.78L40.89 14.36L41.13 13.95L41.37 13.54L41.61 13.13L41.86 12.73L42.1 12.34L42.35 11.95L42.61 11.57L42.86 11.19L43.12 10.81L43.38 10.44L43.64 10.08L43.9 9.72L44.17 9.36L44.44 9.01L44.71 8.66L44.98 8.32L45.26 7.99L45.54 7.66L45.86 7.28L46.19 6.92L46.52 6.56L46.85 6.21L47.18 5.87L47.51 5.54L47.85 5.22L48.19 4.91L48.53 4.61L48.87 4.32L49.22 4.04L49.56 3.76L49.91 3.5L50.26 3.25L50.61 3L50.96 2.77L51.32 2.54L51.68 2.33L52.03 2.12L52.39 1.92L52.76 1.74L53.12 1.56L53.49 1.39L53.85 1.23L54.22 1.08L54.59 0.94L54.96 0.81L55.34 0.69L55.71 0.58L56.09 0.48L56.47 0.39L56.85 0.31L57.23 0.24L57.62 0.17L58 0.12L58.39 0.08L58.78 0.04L59.17 0.02L59.56 0L59.95 0L60.34 0L60.73 0.02ZM58.09 96.9L57.12 97.28L56.16 97.66L55.19 98.03L54.22 98.39L53.24 98.74L52.27 99.08L51.29 99.42L50.31 99.75L49.33 100.06L48.35 100.37L47.37 100.67L46.39 100.96L45.41 101.24L44.42 101.51L44.79 102.56L45.16 103.58L45.54 104.58L45.93 105.55L46.33 106.5L46.74 107.42L47.16 108.32L47.59 109.19L48.03 110.03L48.48 110.85L48.93 111.65L49.4 112.41L49.88 113.15L50.36 113.87L50.85 114.55L51.35 115.21L52.4 116.45L53.45 117.53L54.52 118.44L55.59 119.18L56.68 119.76L57.76 120.17L58.86 120.42L59.95 120.5L61.04 120.42L62.13 120.17L63.22 119.76L64.31 119.18L65.39 118.43L66.46 117.52L67.52 116.44L68.57 115.2L69.08 114.54L69.58 113.85L70.07 113.14L70.55 112.4L71.02 111.63L71.48 110.84L71.94 110.02L72.38 109.18L72.81 108.31L73.24 107.41L73.66 106.49L74.06 105.54L74.46 104.57L74.85 103.58L75.22 102.56L75.59 101.51L74.61 101.25L73.63 100.97L72.65 100.68L71.67 100.39L70.69 100.08L69.71 99.76L68.74 99.44L67.76 99.11L66.79 98.76L65.81 98.41L64.84 98.05L63.87 97.68L62.9 97.29L61.94 96.9L60.97 96.51L60.01 96.1L59.05 96.5L58.09 96.9ZM100.23 71.18L99.49 71.84L98.74 72.49L97.97 73.15L97.2 73.8L96.42 74.45L95.63 75.09L94.83 75.73L94.02 76.37L93.2 77.01L92.37 77.64L91.53 78.27L90.69 78.89L89.84 79.51L88.97 80.13L88.85 81.13L88.72 82.13L88.58 83.13L88.44 84.12L88.28 85.11L88.12 86.09L87.95 87.07L87.77 88.05L87.58 89.02L87.39 89.99L87.18 90.96L86.97 91.92L86.76 92.87L86.53 93.82L86.3 94.77L86.05 95.71L86.85 95.87L87.64 96.01L88.41 96.15L89.18 96.28L89.94 96.39L90.69 96.5L91.44 96.6L92.17 96.68L92.9 96.76L93.61 96.83L94.32 96.88L95.01 96.93L95.7 96.97L96.38 96.99L97.05 97.01L97.71 97.01L97.98 97.01L98.26 97.01L98.53 97.01L98.81 97L99.08 96.99L99.35 96.98L99.62 96.97L99.89 96.95L100.15 96.94L100.42 96.92L100.68 96.9L100.94 96.88L101.2 96.85L101.45 96.83L101.71 96.8L101.96 96.77L102.8 96.66L103.6 96.53L104.37 96.37L105.1 96.19L105.8 95.99L106.46 95.76L107.08 95.52L107.67 95.25L108.22 94.96L108.74 94.64L109.22 94.31L109.66 93.95L110.07 93.57L110.44 93.17L110.77 92.74L111.06 92.29L111.32 91.82L111.55 91.33L111.73 90.83L111.87 90.31L111.98 89.76L112.04 89.2L112.07 88.63L112.06 88.03L112.01 87.41L111.92 86.78L111.79 86.12L111.62 85.45L111.41 84.75L111.17 84.04L110.88 83.3L110.56 82.54L110.21 81.79L109.83 81.04L109.43 80.28L108.99 79.51L108.53 78.73L108.05 77.95L107.53 77.17L106.99 76.37L106.42 75.58L105.83 74.77L105.2 73.97L104.55 73.15L103.88 72.33L103.18 71.51L102.45 70.68L101.69 69.85L100.97 70.52L100.23 71.18ZM16.71 71.49L16.01 72.3L15.33 73.11L14.68 73.92L14.06 74.72L13.47 75.52L12.9 76.31L12.36 77.1L11.84 77.89L11.36 78.66L10.9 79.44L10.47 80.21L10.06 80.97L9.68 81.72L9.34 82.47L9.01 83.23L8.73 83.97L8.48 84.68L8.27 85.38L8.11 86.05L7.98 86.7L7.89 87.34L7.85 87.95L7.84 88.55L7.87 89.13L7.94 89.68L8.05 90.22L8.2 90.75L8.39 91.25L8.62 91.74L8.88 92.21L9.18 92.67L9.52 93.11L9.89 93.52L10.3 93.91L10.74 94.28L11.21 94.62L11.73 94.94L12.27 95.23L12.86 95.5L13.48 95.75L14.14 95.97L14.83 96.17L15.57 96.35L16.34 96.5L17.14 96.63L17.99 96.74L18.84 96.83L19.71 96.89L20.6 96.93L21.51 96.96L22.44 96.96L23.39 96.95L24.36 96.91L25.35 96.85L26.35 96.78L27.37 96.68L28.42 96.57L29.47 96.43L30.55 96.28L31.64 96.11L32.76 95.91L33.88 95.7L33.64 94.76L33.4 93.82L33.17 92.87L32.95 91.92L32.74 90.96L32.53 90L32.34 89.04L32.15 88.07L31.97 87.09L31.8 86.12L31.64 85.14L31.49 84.15L31.35 83.17L31.21 82.18L31.09 81.18L30.97 80.19L30.11 79.57L29.25 78.94L28.4 78.31L27.56 77.68L26.73 77.05L25.91 76.41L25.09 75.76L24.29 75.12L23.49 74.47L22.71 73.82L21.93 73.16L21.16 72.5L20.4 71.84L19.66 71.18L18.92 70.51L18.19 69.84L17.44 70.67L16.71 71.49ZM77.67 87.34L76.8 87.83L75.93 88.32L75.05 88.81L74.11 89.34L73.18 89.85L72.27 90.34L71.38 90.81L70.51 91.26L72.02 91.81L73.51 92.32L74.99 92.8L76.45 93.26L77.89 93.67L78.2 92.3L78.51 90.88L78.8 89.41L79.09 87.91L79.36 86.37L78.52 86.85L77.67 87.34ZM41.14 89.3L41.44 90.75L41.75 92.21L42.09 93.67L43.52 93.25L44.97 92.8L46.44 92.31L47.93 91.8L49.44 91.25L48.48 90.76L47.55 90.27L46.65 89.77L45.77 89.27L44.92 88.78L44.06 88.33L43.2 87.86L42.34 87.38L41.48 86.89L40.62 86.38L40.87 87.84L41.14 89.3ZM59.24 41.51L58.85 41.69L58.47 41.87L58.08 42.06L57.7 42.24L57.31 42.42L56.93 42.61L56.55 42.79L56.17 42.98L55.79 43.17L55.41 43.36L55.03 43.54L54.65 43.73L54.28 43.92L53.9 44.11L53.52 44.31L53.15 44.5L52.78 44.69L52.4 44.88L52.03 45.08L51.66 45.27L51.29 45.47L50.92 45.66L50.55 45.86L50.19 46.05L49.82 46.25L49.45 46.45L49.05 46.68L48.65 46.91L48.25 47.13L47.86 47.36L47.47 47.59L47.08 47.81L46.69 48.04L46.31 48.26L45.93 48.49L45.55 48.71L45.17 48.93L44.8 49.16L44.43 49.38L44.07 49.6L43.71 49.82L43.35 50.04L42.99 50.25L42.64 50.47L42.29 50.69L41.94 50.9L41.6 51.12L41.26 51.33L40.93 51.54L40.59 51.76L40.26 51.97L39.94 52.18L39.61 52.39L39.3 52.59L39.26 52.95L39.23 53.31L39.21 53.67L39.18 54.04L39.15 54.41L39.13 54.78L39.1 55.16L39.08 55.54L39.06 55.93L39.03 56.32L39.01 56.71L39 57.11L38.98 57.51L38.96 57.92L38.95 58.32L38.93 58.74L38.92 59.15L38.91 59.57L38.89 60L38.89 60.42L38.88 60.85L38.87 61.29L38.86 61.73L38.86 62.17L38.85 62.61L38.85 63.06L38.85 63.51L38.85 63.97L38.85 64.42L38.85 64.88L38.85 65.33L38.86 65.77L38.86 66.21L38.87 66.65L38.88 67.09L38.89 67.52L38.89 67.95L38.91 68.38L38.92 68.8L38.93 69.22L38.95 69.63L38.96 70.04L38.98 70.45L39 70.85L39.02 71.26L39.04 71.65L39.06 72.05L39.08 72.44L39.1 72.82L39.13 73.2L39.15 73.58L39.18 73.96L39.21 74.33L39.24 74.69L39.27 75.06L39.3 75.42L39.6 75.61L39.9 75.81L40.2 76.01L40.51 76.21L40.82 76.42L41.14 76.62L41.47 76.83L41.8 77.04L42.13 77.25L42.47 77.46L42.81 77.68L43.16 77.89L43.52 78.11L43.87 78.33L44.24 78.55L44.6 78.77L44.98 79L45.35 79.23L45.73 79.45L46.12 79.68L46.51 79.91L46.9 80.15L47.3 80.38L47.7 80.62L48.11 80.85L48.52 81.09L48.94 81.33L49.36 81.57L49.73 81.78L50.11 81.99L50.48 82.2L50.85 82.41L51.23 82.61L51.6 82.81L51.98 83.02L52.36 83.22L52.74 83.42L53.12 83.61L53.49 83.81L53.87 84.01L54.25 84.2L54.64 84.39L55.02 84.59L55.4 84.78L55.78 84.96L56.16 85.15L56.55 85.34L56.93 85.52L57.32 85.7L57.7 85.89L58.09 86.07L58.47 86.24L58.86 86.42L59.24 86.6L59.63 86.77L60.01 86.94L60.41 86.77L60.8 86.59L61.19 86.41L61.59 86.23L61.98 86.05L62.36 85.87L62.75 85.68L63.14 85.5L63.53 85.31L63.91 85.12L64.29 84.94L64.67 84.75L65.06 84.56L65.43 84.37L65.81 84.17L66.19 83.98L66.56 83.79L66.94 83.59L67.31 83.39L67.68 83.19L68.05 83L68.42 82.8L68.79 82.6L69.15 82.39L69.52 82.19L69.88 81.99L70.24 81.78L70.6 81.58L71 81.36L71.39 81.13L71.79 80.91L72.18 80.69L72.57 80.46L72.95 80.24L73.34 80.02L73.72 79.8L74.09 79.58L74.47 79.36L74.84 79.14L75.21 78.92L75.57 78.7L75.94 78.48L76.3 78.26L76.66 78.05L77.01 77.83L77.36 77.61L77.71 77.4L78.06 77.18L78.4 76.97L78.74 76.75L79.08 76.54L79.42 76.32L79.75 76.11L80.08 75.9L80.4 75.69L80.73 75.48L80.76 75.11L80.79 74.75L80.82 74.37L80.85 74L80.87 73.62L80.9 73.24L80.92 72.85L80.95 72.47L80.97 72.07L80.99 71.68L81.01 71.28L81.03 70.87L81.05 70.47L81.06 70.06L81.08 69.64L81.09 69.23L81.11 68.81L81.12 68.38L81.13 67.96L81.14 67.53L81.15 67.09L81.15 66.66L81.16 66.22L81.17 65.77L81.17 65.33L81.17 64.88L81.17 64.42L81.18 63.97L81.17 63.52L81.17 63.07L81.17 62.62L81.17 62.18L81.16 61.74L81.15 61.31L81.15 60.87L81.14 60.45L81.13 60.02L81.12 59.6L81.11 59.18L81.09 58.76L81.08 58.35L81.06 57.94L81.05 57.53L81.03 57.13L81.01 56.73L80.99 56.33L80.97 55.94L80.95 55.55L80.92 55.16L80.9 54.78L80.87 54.4L80.85 54.02L80.82 53.65L80.79 53.28L80.76 52.91L80.73 52.55L80.38 52.33L80.03 52.11L79.68 51.9L79.33 51.68L78.98 51.46L78.62 51.24L78.27 51.02L77.91 50.8L77.55 50.58L77.19 50.36L76.83 50.14L76.47 49.92L76.11 49.7L75.74 49.48L75.38 49.26L75.01 49.04L74.64 48.82L74.27 48.6L73.9 48.39L73.53 48.17L73.16 47.95L72.79 47.73L72.41 47.51L72.04 47.29L71.66 47.07L71.28 46.85L70.9 46.64L70.52 46.42L70.16 46.22L69.8 46.03L69.44 45.84L69.07 45.65L68.7 45.45L68.34 45.26L67.97 45.07L67.6 44.88L67.23 44.69L66.85 44.5L66.48 44.31L66.11 44.12L65.73 43.93L65.35 43.74L64.98 43.55L64.6 43.36L64.22 43.18L63.84 42.99L63.46 42.8L63.08 42.62L62.7 42.43L62.32 42.25L61.93 42.06L61.55 41.88L61.16 41.69L60.78 41.51L60.4 41.33L60.01 41.15L59.62 41.33L59.24 41.51ZM89.98 61.21L90 62.16L90.01 63.08L90.01 63.97L90.01 64.94L90 65.93L89.98 66.94L89.95 67.97L89.91 69.02L90.34 68.67L90.77 68.32L91.19 67.98L91.62 67.63L92.04 67.29L92.8 66.65L93.55 66.01L94.29 65.37L95.02 64.72L95.73 64.06L94.66 63.12L93.55 62.17L92.38 61.2L91.17 60.21L89.91 59.22L89.95 60.23L89.98 61.21ZM27.63 61.12L26.46 62.09L25.32 63.06L24.22 64.04L25.31 65.01L26.44 65.99L27.62 66.98L28.84 67.97L30.11 68.96L30.08 67.99L30.05 67L30.03 66.01L30.02 64.99L30.01 63.96L30.02 62.99L30.02 62.03L30.04 61.08L30.06 60.13L30.09 59.19L28.84 60.15L27.63 61.12ZM95.62 31.16L94.63 31.21L93.63 31.29L92.6 31.38L91.56 31.5L90.5 31.63L89.42 31.79L88.33 31.96L87.22 32.16L86.09 32.37L86.33 33.3L86.57 34.24L86.8 35.19L87.03 36.14L87.24 37.1L87.45 38.07L87.65 39.04L87.84 40.02L88.02 41.01L88.19 42L88.35 43L88.51 44L88.66 45.01L88.8 46.03L88.93 47.05L89.05 48.08L89.89 48.67L90.73 49.28L91.55 49.88L92.38 50.5L93.19 51.12L94 51.74L94.8 52.37L95.6 53L96.39 53.64L97.17 54.28L97.94 54.93L98.71 55.58L99.47 56.24L100.22 56.9L100.97 57.57L101.7 58.24L102.47 57.41L103.2 56.59L103.91 55.77L104.6 54.95L105.25 54.14L105.88 53.34L106.48 52.54L107.05 51.74L107.6 50.96L108.11 50.17L108.6 49.39L109.06 48.62L109.49 47.85L109.9 47.09L110.28 46.34L110.62 45.59L110.95 44.83L111.24 44.09L111.48 43.38L111.69 42.68L111.86 42L111.99 41.34L112.08 40.7L112.13 40.08L112.14 39.48L112.12 38.9L112.05 38.33L111.94 37.78L111.8 37.25L111.62 36.74L111.39 36.24L111.13 35.76L110.84 35.32L110.51 34.9L110.14 34.5L109.73 34.12L109.29 33.77L108.81 33.43L108.29 33.12L107.74 32.83L107.15 32.57L106.52 32.32L105.86 32.1L105.16 31.9L104.42 31.72L103.65 31.57L102.84 31.44L102 31.33L101.15 31.24L100.28 31.18L99.38 31.13L98.47 31.11L97.54 31.11L96.59 31.12L95.62 31.16ZM21.85 31.05L21.56 31.06L21.28 31.07L20.99 31.07L20.71 31.09L20.43 31.1L20.14 31.11L19.87 31.13L19.59 31.15L19.31 31.17L19.04 31.19L18.77 31.21L18.5 31.24L18.23 31.27L17.97 31.3L17.11 31.41L16.3 31.55L15.52 31.7L14.79 31.88L14.09 32.08L13.43 32.31L12.8 32.55L12.21 32.82L11.66 33.11L11.15 33.42L10.67 33.76L10.23 34.11L9.83 34.49L9.46 34.9L9.13 35.33L8.83 35.78L8.56 36.26L8.33 36.75L8.14 37.26L7.99 37.79L7.88 38.34L7.81 38.91L7.78 39.49L7.79 40.09L7.84 40.71L7.93 41.34L8.06 42L8.22 42.68L8.43 43.37L8.68 44.09L8.97 44.82L9.3 45.58L9.65 46.33L10.03 47.08L10.44 47.85L10.88 48.62L11.34 49.39L11.83 50.17L12.35 50.95L12.9 51.74L13.47 52.54L14.08 53.34L14.7 54.14L15.36 54.95L16.04 55.76L16.75 56.58L17.49 57.4L18.25 58.23L18.97 57.57L19.71 56.91L20.45 56.25L21.2 55.6L21.96 54.95L22.73 54.3L23.52 53.65L24.31 53L25.11 52.36L25.92 51.72L26.74 51.08L27.57 50.45L28.41 49.82L29.25 49.19L30.11 48.57L30.98 47.95L31.09 46.95L31.22 45.95L31.35 44.95L31.5 43.96L31.65 42.97L31.81 41.98L31.98 40.99L32.16 40.01L32.34 39.03L32.54 38.05L32.74 37.07L32.96 36.1L33.18 35.13L33.41 34.17L33.65 33.21L33.89 32.25L33.11 32.11L32.34 31.97L31.58 31.84L30.82 31.73L30.08 31.62L29.34 31.52L28.61 31.43L27.89 31.35L27.17 31.28L26.47 31.22L25.77 31.17L25.09 31.13L24.41 31.09L23.74 31.07L23.08 31.05L22.43 31.05L22.14 31.05L21.85 31.05ZM75 35.26L73.52 35.75L72.02 36.27L70.5 36.81L71.45 37.31L72.37 37.8L73.25 38.27L74.11 38.74L74.92 39.19L75.84 39.7L76.75 40.21L77.64 40.72L78.51 41.23L79.38 41.74L79.12 40.26L78.84 38.78L78.54 37.3L78.22 35.83L77.88 34.37L76.46 34.8L75 35.26ZM41.46 37.28L41.16 38.75L40.87 40.23L40.6 41.73L41.46 41.22L42.33 40.71L43.22 40.2L44.13 39.69L45.05 39.18L45.89 38.7L46.75 38.23L47.62 37.76L48.51 37.29L49.41 36.83L47.94 36.3L46.48 35.79L45.02 35.3L43.57 34.83L42.13 34.39L41.79 35.82L41.46 37.28ZM57.77 7.83L56.68 8.25L55.6 8.83L54.52 9.58L53.46 10.49L52.4 11.58L51.35 12.82L50.85 13.49L50.35 14.18L49.87 14.89L49.39 15.64L48.92 16.4L48.46 17.2L48.01 18.01L47.57 18.86L47.13 19.72L46.71 20.62L46.29 21.53L45.89 22.47L45.49 23.44L45.1 24.42L44.73 25.44L44.36 26.47L45.31 26.75L46.27 27.03L47.23 27.32L48.2 27.63L49.17 27.94L50.14 28.26L51.11 28.59L52.09 28.92L53.07 29.27L54.06 29.62L55.04 29.99L56.03 30.36L57.02 30.73L58.02 31.12L59.01 31.52L60.01 31.92L61.03 31.5L62.05 31.09L63.07 30.7L64.07 30.31L65.07 29.94L66.06 29.58L67.05 29.22L68.03 28.88L69 28.55L69.96 28.23L70.92 27.92L71.87 27.63L72.81 27.34L73.74 27.07L74.67 26.8L75.59 26.55L75.22 25.5L74.84 24.48L74.45 23.49L74.06 22.52L73.65 21.57L73.23 20.65L72.81 19.75L72.37 18.88L71.93 18.03L71.48 17.21L71.01 16.41L70.54 15.64L70.06 14.9L69.57 14.18L69.08 13.49L68.57 12.82L67.52 11.58L66.46 10.49L65.39 9.58L64.31 8.83L63.22 8.25L62.13 7.83L61.04 7.58L59.95 7.5L58.86 7.58L57.77 7.83Z" id="c4faLdSEUf"></path>
</svg>
