<?xml version="1.0" encoding="utf-8"?>
<!-- Generator: Adobe Illustrator 16.0.1, SVG Export Plug-In . SVG Version: 6.00 Build 0)  -->
<!DOCTYPE svg PUBLIC "-//W3C//DTD SVG 1.1//EN" "http://www.w3.org/Graphics/SVG/1.1/DTD/svg11.dtd">
<svg version="1.1" id="Layer_1" xmlns="http://www.w3.org/2000/svg" xmlns:xlink="http://www.w3.org/1999/xlink" x="0px" y="0px"
	 width="20px" height="20px" viewBox="0 0 20 20" enable-background="new 0 0 20 20" xml:space="preserve">
<g>
	<path fill="#666666" d="M8.386,14.011c-0.294,0.152-0.657,0.035-0.809-0.26l-1.043-2.023c-0.151-0.295-0.035-0.657,0.26-0.81
		l2.691-1.385c0.295-0.152,0.658-0.036,0.81,0.26l1.041,2.023c0.154,0.295,0.037,0.658-0.258,0.81L8.386,14.011z"/>
	<path fill="#666666" d="M9.2,16.579c-0.472,0.242-1.05,0.059-1.293-0.414l0,0c-0.242-0.471-0.057-1.049,0.414-1.291l3.343-1.723
		c0.473-0.242,1.051-0.057,1.293,0.414l0,0c0.242,0.471,0.059,1.049-0.414,1.292L9.2,16.579z"/>
	<path fill="#666666" d="M6.016,10.397c-0.471,0.243-1.05,0.057-1.292-0.414l0,0C4.482,9.512,4.667,8.934,5.137,8.691l3.346-1.722
		c0.471-0.243,1.049-0.057,1.292,0.414l0,0c0.242,0.471,0.058,1.05-0.414,1.292L6.016,10.397z"/>
	<path fill="#666666" d="M1.792,16.794C1.23,17.083,0.541,16.862,0.25,16.3l-0.123-0.238c-0.29-0.562-0.068-1.252,0.494-1.542
		l4.419-2.275c0.562-0.29,1.252-0.068,1.542,0.493l0.123,0.24c0.289,0.562,0.067,1.252-0.494,1.541L1.792,16.794z"/>
</g>
<path fill="#666666" d="M13.873,19.142c0,0.475-0.385,0.858-0.857,0.858H6.838c-0.475,0-0.859-0.384-0.859-0.858l0,0
	c0-0.475,0.385-0.858,0.859-0.858h6.177C13.488,18.283,13.873,18.667,13.873,19.142L13.873,19.142z"/>
<g>
	<circle fill="#47AE38" cx="15.046" cy="10.503" r="4.954"/>
	<polygon fill="#FFFFFF" points="11.33,10.334 13.691,12.478 14.203,12.896 14.707,12.481 18.76,8.426 18.512,8.113 14.203,11.192 
		11.58,10.02 	"/>
</g>
</svg>
