
<svg xmlns="http://www.w3.org/2000/svg" width="128px" height="128px" viewBox="0 0 128 128"> 
            <path d="M537.210198,322.08349 C537.273848,315.138018 534.799265,311.867593 528.134658,310.551817 C507.526073,306.481278 487.274547,308.095195 467.935854,315.688667 C435.607931,328.38096 416.335992,353.04149 406.611534,384.890872 C396.528464,417.916086 397.1572,451.539103 405.323013,484.822908 C410.930411,507.682423 421.799014,528.138554 441.527368,542.578624 C468.050734,561.991262 498.023613,564.431151 529.438704,558.1063 C535.025921,556.982187 537.179149,553.854747 537.135681,547.923868 C536.864005,510.157298 536.997514,472.389207 536.997514,434.622636 C537.050297,397.108573 536.871767,359.59451 537.210198,322.08349 Z M536.946284,107.000529 C592.392047,107.557262 620.811454,107.948699 622.204507,108.17484 C622.36596,110.826166 622.656265,416.379746 622.782013,566.693069 C622.789775,576.80705 623.590832,586.949933 624.634069,597.019801 C625.206917,602.539976 624.044143,606.032486 618.564045,608.528657 C571.099872,630.148452 521.439002,639.037925 469.256977,633.90716 C428.612655,629.911156 392.620983,615.904608 363.456924,587.025989 C342.762954,566.534872 329.394929,541.860652 321.618778,514.399725 C309.23655,470.677937 307.024329,426.343136 318.49062,382.184785 C336.118529,314.305961 378.180225,267.713805 446.950027,246.057503 C472.555903,237.994003 532.150809,237.616763 536.488315,237.616763 C536.61665,235.171803 536.769306,191.633058 536.946284,107.000529 Z" id="Combined-Shape" fill="#FFFFFF"></path>

</svg>