<svg xmlns="http://www.w3.org/2000/svg" width="128" height="128" viewBox="0 0 128 128">
        <g id="indesign" fill-rule="nonzero" fill="#000000">
            <path d="M0,0 L0,128 L128,128 L128,0 L0,0 Z M93.1746685,55.8627191 C93.1857081,54.6580844 92.7565121,54.0908562 91.6005911,53.8626458 C88.0262024,53.1566444 84.5137426,53.436565 81.1596061,54.7535899 C75.5525951,56.9549633 72.2100366,61.2321283 70.5234097,66.7561404 C68.7745845,72.4840908 68.8836336,78.3157252 70.2999264,84.088526 C71.2724832,88.05332 73.1575526,91.6012668 76.5792725,94.1057776 C81.1795311,97.4727392 86.3780792,97.8959178 91.8267671,96.7989247 C92.7958237,96.6039566 93.1692833,96.0615279 93.1617441,95.032866 C93.1146242,88.4825666 93.1377802,81.9320034 93.1377802,75.3817038 C93.146935,68.8751997 93.1159704,62.3686955 93.1746685,55.8627191 Z M93.1288948,18.5583573 C102.745504,18.6549181 107.674615,18.7228096 107.916229,18.7620319 C107.944232,19.2218824 107.994583,72.2176253 108.016392,98.2882288 C108.017739,100.042415 108.156675,101.801614 108.337616,103.54815 C108.436972,104.505578 108.235299,105.111325 107.284821,105.544266 C99.0525523,109.29404 90.4392849,110.835846 81.388744,109.945957 C74.3393223,109.252883 68.0968643,106.823563 63.0385993,101.814806 C59.4494012,98.2607908 57.1308278,93.9812513 55.7821187,89.2183805 C53.6345236,81.6351977 53.2508321,73.945693 55.2395655,66.286792 C58.2969806,54.513771 65.5922341,46.4327467 77.5197879,42.6766401 C81.9609154,41.2780927 92.2971593,41.2126635 93.0494638,41.2126635 C93.0717225,40.7886054 93.0981994,33.23717 93.1288948,18.5583573 Z M43.16,108.518 L26.7050001,108.518 L26.7050001,18.3480001 L43.16,18.3480001 L43.16,108.518 Z" id="Shape"></path>
        </g>
</svg>