<svg xmlns="http://www.w3.org/2000/svg" width="128" height="128" viewBox="0 0 128 128">
    <path d="M85.5 49.6c0 7.4 2.4 14-1.4 19.5-5.4 7.9-10.4 13.1-20 13.1-10.2 0-16.8-5.8-22.2-14.5-3.2-5.2 1.2-10.6 1.2-17.4 0-10.9 1.2-17 8.6-22.9 4.9-4 5.3-1.4 11.8-1.4 6.8 0 7.5-2.5 12.4 1.7 7.1 6 9.6 11.2 9.6 21.9z"/><path d="M109.6 93.3c-.9-.9-6 5.5-14.7 2.3-8.4-3.1-12.1-13.5-14.6-13.5H47.9c-1.1 0-2.3 0-3.4.1-.9.1-6.9 11.7-11 13.6-2.5 1.2-14.9-2.7-16.4-1.2C9 102.7 4 113.8 4 126.1v1.9h120.3v-1.9c-.1-13-5.7-24.7-14.7-32.8zM64 121.9L47.7 91.7l7.1-5.7h6l3.3 8.6 3.7-8.6h5.6l7.1 5.7L64 121.9z"/><path d="M62.7 8.6c13.8 0 20.9 5 26.3 11.9 6.6 8.5 7.4 25.7 7.4 25.7s7 .6 7.8 4.1c1.5 6.4-4.9 8.6-4.9 8.6s7.2 1.3 8.2 7.7c.7 4.3-9 8-9 8s12.5 1.6 12.5 8.6c0 3-3.5 8.7-11.3 8.7-1.3 0-2.8-.2-4.3-.5-8.4-1.9-11.7-10-12.1-16.6-.4-6.5 5-10.2 5-10.2l-2.8-27.3L76.9 24l-25.3-.1-9.2 13.6L39 64.8s4.1 4.5 4.2 9.1c.1 6.2-3.4 17.1-13.2 17.8-1.1.1-2.2.1-3.2.1-8.5 0-10.7-3-10.7-8.5 0-6.7 12.2-8.6 12.2-8.6s-9.1-3.1-9.2-8.3c-.2-6.1 9-7.7 9-7.7s-6-4.2-4.5-8.5c1.6-4.4 6.7-4.6 7.6-4.6h.2s-2-12.4 5.1-23.4C40.4 16.4 50 8.6 62.7 8.6m0-8.6C47.5 0 35 8.8 29.4 17.6c-5 7.7-6.4 15.9-6.7 21.6-3 1.6-5.7 4.2-7.1 8.1-1.1 2.9-1 5.7-.2 8.3-3 2.7-4.9 6.4-4.8 11.1.1 2.4.7 4.4 1.7 6.3-2.8 2.7-4.7 6.1-4.7 10.5 0 6.4 2.5 17 19.2 17 1.2 0 2.4 0 3.8-.1 15-1.1 21.4-16.2 21.2-26.6-.1-4.5-2.1-8.6-3.9-11.3l2.8-22 5.5-8.1 16.1.1 4.9 7.6 2.2 21.2c-2.5 3-5 7.7-4.7 13.9.7 12.4 8.1 21.9 18.7 24.4 2.1.5 4.2.8 6.3.8 12.9 0 19.8-10 19.8-17.2 0-4.5-1.9-8-4.8-10.7 1.1-2.1 1.6-4.5 1.2-7.2-.6-3.4-2-6.2-3.8-8.3.8-2.6 1.1-5.5.3-8.6-1.1-4.8-4.7-7.5-8.2-9-.9-6.7-3.2-17.2-8.5-24.1C87.8 4.8 77.3 0 62.7 0z"/></svg>
