<svg width="128" height="128" viewBox="0 0 128 128" fill="none" xmlns="http://www.w3.org/2000/svg">
    <path fill-rule="evenodd" clip-rule="evenodd" d="M64.0003 0C28.6543 0 0 28.6533 0 64C0 99.3463 28.6543 128 64.0003 128C99.3466 128 128 99.3463 128 64C128 28.6533 99.3466 0 64.0003 0Z" fill="white"/>
    <path fill-rule="evenodd" clip-rule="evenodd" d="M102.697 67.5072L96.1277 70.4439V100.736C92.4325 104.256 82.9891 109.742 73.9563 111.628V109.427V105.297V69.7838L66.9763 67.3176V65.4882H102.697V67.5072ZM69.9532 17.0521C69.9532 17.0521 69.8182 17.0509 69.7518 17.0509C54.9428 17.0509 46.4707 37.0185 46.8977 63.9525C46.4707 90.9839 54.9428 110.951 69.7518 110.951C69.8182 110.951 69.9532 110.95 69.9532 110.95V113.026C47.7513 114.51 17.4376 97.97 17.8646 64.0497C17.4376 30.0321 47.7513 13.492 69.9532 14.9765V17.0521ZM74.4174 14.8832C83.0997 16.2092 93.0222 21.9113 96.743 25.9595V44.6507H94.6051L74.4174 16.9459V14.8832Z" fill="black"/>
</svg>