<?xml version="1.0" encoding="utf-8"?>
<!-- Generator: Adobe Illustrator 16.0.1, SVG Export Plug-In . SVG Version: 6.00 Build 0)  -->
<!DOCTYPE svg PUBLIC "-//W3C//DTD SVG 1.1//EN" "http://www.w3.org/Graphics/SVG/1.1/DTD/svg11.dtd">
<svg version="1.1" id="Layer_1" xmlns="http://www.w3.org/2000/svg" xmlns:xlink="http://www.w3.org/1999/xlink" x="0px" y="0px"
	 width="14px" height="14px" viewBox="0 0 14 14" enable-background="new 0 0 14 14" xml:space="preserve">
<g>
	<path fill="#666666" d="M8.463,7.956C8.166,8.109,7.8,7.992,7.647,7.694L6.595,5.652C6.442,5.354,6.559,4.988,6.857,4.834
		l2.715-1.397c0.299-0.153,0.664-0.036,0.818,0.262l1.051,2.042c0.154,0.298,0.035,0.664-0.262,0.817L8.463,7.956z"/>
	<path fill="#666666" d="M9.283,10.547c-0.475,0.244-1.059,0.059-1.303-0.418l0,0C7.735,9.654,7.922,9.07,8.396,8.826l3.375-1.737
		c0.477-0.245,1.061-0.058,1.305,0.417l0,0c0.244,0.475,0.059,1.059-0.418,1.305L9.283,10.547z"/>
	<path fill="#666666" d="M6.072,4.309c-0.476,0.245-1.06,0.058-1.304-0.417l0,0C4.523,3.416,4.71,2.832,5.185,2.587L8.561,0.85
		c0.475-0.245,1.059-0.058,1.305,0.417l0,0c0.244,0.476,0.057,1.06-0.418,1.304L6.072,4.309z"/>
	<path fill="#666666" d="M1.808,10.764c-0.566,0.293-1.263,0.068-1.555-0.498l-0.125-0.24C-0.164,9.457,0.06,8.762,0.627,8.469
		l4.46-2.296C5.654,5.881,6.35,6.104,6.643,6.671l0.124,0.242c0.292,0.566,0.068,1.263-0.499,1.554L1.808,10.764z"/>
</g>
<path fill="#666666" d="M14,13.133C14,13.611,13.613,14,13.135,14H6.901c-0.479,0-0.867-0.389-0.867-0.867l0,0
	c0-0.479,0.389-0.865,0.867-0.865h6.234C13.613,12.268,14,12.654,14,13.133L14,13.133z"/>
</svg>
