<?xml version="1.0" encoding="utf-8"?>
<!-- Generator: Adobe Illustrator 16.0.1, SVG Export Plug-In . SVG Version: 6.00 Build 0)  -->
<!DOCTYPE svg PUBLIC "-//W3C//DTD SVG 1.1//EN" "http://www.w3.org/Graphics/SVG/1.1/DTD/svg11.dtd">
<svg version="1.1" id="Layer_1" xmlns="http://www.w3.org/2000/svg" xmlns:xlink="http://www.w3.org/1999/xlink" x="0px" y="0px"
	 width="128px" height="128px" viewBox="0 0 128 128" enable-background="new 0 0 128 128" xml:space="preserve">
<path fill="#666666" d="M97.355,566.844c-3.312,0-6,2.689-6,6c0,3.312,2.688,6,6,6c3.311,0,6-2.688,6-6
	C103.355,569.533,100.666,566.844,97.355,566.844z M97.355,577.383c-0.66,0-1.205-0.535-1.205-1.201
	c0-0.668,0.545-1.196,1.205-1.196c0.658,0,1.205,0.528,1.205,1.196C98.561,576.848,98.014,577.383,97.355,577.383z M97.818,574.347
	h-0.928l-0.931-5.137l0.459-0.499h1.865l0.459,0.499L97.818,574.347z"/>
<path d="M79.225,70.234c-2.779,1.431-6.207,0.334-7.643-2.454l-9.844-19.113c-1.435-2.788-0.339-6.211,2.449-7.654l25.419-13.08
	c2.787-1.435,6.216-0.338,7.649,2.45l9.835,19.111c1.444,2.788,0.338,6.21-2.45,7.65L79.225,70.234z"/>
<path d="M87.099,94.986c-4.45,2.291-9.906,0.543-12.201-3.906l0,0c-2.294-4.451-0.538-9.912,3.903-12.203l31.587-16.26
	c4.45-2.294,9.917-0.539,12.202,3.905l0,0c2.295,4.451,0.549,9.912-3.903,12.207L87.099,94.986z"/>
<path d="M56.839,36.1c-4.45,2.289-9.917,0.543-12.201-3.907l0,0c-2.294-4.452-0.54-9.917,3.903-12.208L80.137,3.723
	c4.442-2.29,9.907-0.54,12.201,3.906l0,0c2.286,4.451,0.541,9.917-3.912,12.207L56.839,36.1z"/>
<path d="M16.936,96.517C11.634,99.249,5.117,97.16,2.383,91.85l-1.169-2.253c-2.731-5.305-0.64-11.826,4.671-14.56l41.742-21.494
	c5.301-2.733,11.817-0.645,14.561,4.662l1.16,2.266c2.731,5.302,0.64,11.82-4.67,14.552L16.936,96.517z"/>
<path d="M128.002,117.081c0,4.409-3.571,7.986-7.98,7.986H62.582c-4.41,0-7.99-3.577-7.99-7.986l0,0c0-4.405,3.58-7.981,7.99-7.981
	h57.439C124.431,109.1,128.002,112.676,128.002,117.081L128.002,117.081z"/>
</svg>
