<svg xmlns="http://www.w3.org/2000/svg" width="128" height="128" viewBox="0 0 128 128"><path d="M56.57 26.268c-.794.057-1.645.21-2.398.6L32.786 37.86c-3.006 1.554-4.146 5.182-2.598 8.195 1.548 3.012 5.382 4.352 8.394 2.798L59.968 37.86c3.02-1.548 4.147-5.382 2.6-8.394-1.167-2.26-3.614-3.378-5.997-3.198zm5.597 16.59c-.498.037-.927.156-1.4.4L43.38 52.05c-1.888.98-2.566 3.31-1.6 5.198l6.596 12.99c.972 1.888 3.316 2.572 5.197 1.6l17.188-8.794c1.888-.972 2.785-3.31 1.8-5.197l-6.795-12.99c-.73-1.42-2.103-2.113-3.598-2zM34.985 59.845c-.95.072-1.9.336-2.8.8l-28.18 14.59C.41 77.09-1.048 81.436.807 85.03l.8 1.6c1.86 3.593 6.198 4.845 9.793 2.997l28.38-14.39c3.59-1.85 5.048-6.4 3.2-9.995l-.8-1.4c-1.39-2.69-4.35-4.21-7.195-3.996zm41.972 5.996c-.796.058-1.642.212-2.398.6L53.172 77.433c-3.013 1.548-4.146 5.183-2.6 8.195 1.556 3.024 5.177 4.345 8.196 2.797l21.385-11.192c3.026-1.555 4.346-5.183 2.8-8.195-1.162-2.26-3.61-3.377-5.998-3.198zM43.78 99.22c-3.033 0-5.597 2.56-5.597 5.597 0 3.03 2.558 5.396 5.596 5.396h39.573c3.02 0 5.397-2.358 5.397-5.396s-2.57-5.603-5.597-5.597H43.78z" fill="#666"/></svg>