<?xml version="1.0" encoding="utf-8"?>
<!-- Generator: Adobe Illustrator 16.0.1, SVG Export Plug-In . SVG Version: 6.00 Build 0)  -->
<!DOCTYPE svg PUBLIC "-//W3C//DTD SVG 1.1//EN" "http://www.w3.org/Graphics/SVG/1.1/DTD/svg11.dtd">
<svg version="1.1" id="Layer_1" xmlns="http://www.w3.org/2000/svg" xmlns:xlink="http://www.w3.org/1999/xlink" x="0px" y="0px"
	 width="128px" height="128px" viewBox="0 0 128 128" enable-background="new 0 0 128 128" xml:space="preserve">
<path d="M128.001,89.657v-8.001h-9.829c0.969-4.188,1.539-8.798,1.539-13.971c0-6.325-1.492-12.353-4.157-17.869l0.055,0.039
	c0,0,2.337-10.501,2.188-18.471s-2.868-18.471-2.868-18.471s-10.337,4.313-14.353,6.931c-2.282,1.484-5.845,4.594-8.549,7.032
	c-8.313-4.141-17.971-6.556-28.323-6.556c-10.205,0-19.745,2.344-27.98,6.38c-2.407-2.516-5.594-5.728-7.837-7.442
	c-3.993-3.055-14.611-6.345-14.611-6.345S9.471,26.774,9.463,32.501c-0.016,8.642,2.344,17.354,2.344,17.354l0.039-0.031
	C9.189,55.34,7.697,61.36,7.697,67.686c0,5.548,0.656,10.438,1.773,14.861h-9.47v8.001h12.22c0.328,0.688,0.711,1.312,1.07,1.969
	l-7.79,8.423l5.876,5.438l6.571-7.11c10.142,11.532,26.839,15.775,45.756,15.775c19.369,0,36.442-4.415,46.498-16.588l6.501,7.032
	l5.875-5.423l-7.907-8.563c0.305-0.609,0.617-1.203,0.898-1.844H128.001z M29.919,66.717c0-5.517,3.234-10.001,7.204-10.001
	s7.204,4.485,7.204,10.001s-3.235,10.001-7.204,10.001S29.919,72.233,29.919,66.717z M74.283,99.658c-0.328,0-0.656-0.016-1-0.039
	c-4.879-0.305-7.954-2.734-9.731-5.274c-1.778,2.54-4.852,4.978-9.732,5.282c-0.344,0.016-0.676,0.031-1.004,0.031
	c-7.274,0-10.294-5.267-10.88-8.165l3.922-0.797c0.118,0.539,1.258,5.353,7.712,4.938c5.954-0.375,7.575-4.945,7.892-6.086
	c-2.32-0.625-3.961-2.126-3.961-3.892c0-2.312,2.821-4.203,6.306-4.203c3.477,0,6.298,1.891,6.298,4.203
	c0,1.883-1.887,3.415-4.442,3.954c0.371,1.273,2.062,5.656,7.872,6.016c6.603,0.618,7.665-4.703,7.704-4.922l3.923,0.781
	C84.582,94.392,81.558,99.658,74.283,99.658z M89.355,76.718c-3.977,0-7.204-4.484-7.204-10.001s3.228-10.001,7.204-10.001
	c3.97,0,7.204,4.485,7.204,10.001S93.325,76.718,89.355,76.718z"/>
</svg>
