<svg xmlns="http://www.w3.org/2000/svg" width="128" height="128" viewBox="0 0 128 128">
    <path d="M68.1 22.6c0 12.5-10.1 22.6-22.6 22.6-12.5 0-22.6-10.1-22.6-22.6C22.9 10.1 33 0 45.5 0 58 0 68.1 10.1 68.1 22.6zM25.4 53h42.1v49.4H25.4z"/>
    <path d="M25.3 52.9L3.8 74.5c-2.3 2.3-2.3 6.1 0 8.4 2.3 2.3 6.1 2.3 8.4 0l21.5-21.5-8.4-8.5zM67.5 52.9L89 74.5c2.3 2.3 2.3 6.1 0 8.4-2.3 2.3-6.1 2.3-8.4 0L59 61.4l8.5-8.5zM41.4 98.2v25.2c0 2.5-2.1 4.6-4.6 4.6-2.5 0-4.6-2-4.6-4.6V98.2h9.2zM61 98.2v25.2c0 2.5-2.1 4.6-4.6 4.6s-4.6-2-4.6-4.6V98.2H61zM125.1 24.8c-2.7 10.6-13.8 20.9-23.5 18.4S87.3 26.2 90 15.7c2.7-10.6 12.8-17.1 22.5-14.5 9.7 2.4 15.3 13 12.6 23.6z"/>
    <path d="M96.2 44.4l9.1 2.4-3-7.3"/>
    <path d="M87.3 81.8L83.1 80l16.8-38.4 4.2 1.8"/>
    </svg>
