<?xml version="1.0" encoding="UTF-8" standalone="no"?>
<svg
   height="150"
   viewBox="0 0 150 150"
   width="150"
   fill="#5f6368"
   version="1.1"
   id="svg1"
   xmlns="http://www.w3.org/2000/svg"
   xmlns:svg="http://www.w3.org/2000/svg">
  <defs
     id="defs1" />
  <path
     d="m 40.909092,115.81818 q -17.045456,0 -28.977274,-11.93182 Q 0,91.954545 0,74.909092 0,57.863637 11.931818,45.931818 23.863636,34 40.909092,34 h 68.181818 q 17.04545,0 28.97727,11.931818 Q 150,57.863637 150,74.909092 q 0,17.045453 -11.93182,28.977268 -11.93182,11.93182 -28.97727,11.93182 z m 0,-13.63636 h 68.181818 q 11.25,0 19.26136,-8.011365 8.01137,-8.011363 8.01137,-19.261363 0,-11.25 -8.01137,-19.261366 -8.01136,-8.011362 -19.26136,-8.011362 H 40.909092 q -11.25,0 -19.261365,8.011362 -8.011363,8.011366 -8.011363,19.261366 0,11.25 8.011363,19.261363 8.011365,8.011365 19.261365,8.011365 z m 68.181818,-6.818183 q 8.52273,0 14.48863,-5.965911 5.96592,-5.965908 5.96592,-14.488634 0,-8.522729 -5.96592,-14.488637 -5.9659,-5.96591 -14.48863,-5.96591 -8.52273,0 -14.488636,5.96591 -5.965911,5.965908 -5.965911,14.488637 0,8.522726 5.965911,14.488634 5.965906,5.965911 14.488636,5.965911 z M 75,74.909092 Z"
     id="path1"
     style="stroke-width:0.170454" />
</svg>
