<?xml version="1.0" encoding="UTF-8" standalone="no"?>
<svg
   height="150"
   viewBox="0 0 150 150"
   width="150"
   fill="#5f6368"
   version="1.1"
   id="svg1"
   xmlns="http://www.w3.org/2000/svg"
   xmlns:svg="http://www.w3.org/2000/svg">
  <defs
     id="defs1" />
  <path
     d="m 40.909093,115.81819 q -17.045461,0 -28.977278,-11.93182 Q 0,91.954537 0,74.909095 0,57.863632 11.931815,45.931821 23.863632,34 40.909093,34 h 68.181817 q 17.04546,0 28.97728,11.931821 Q 150,57.863632 150,74.909095 q 0,17.045442 -11.93181,28.977275 -11.93182,11.93182 -28.97728,11.93182 z m 0,-13.63638 h 68.181817 q 11.25,0 19.26137,-8.011358 8.01135,-8.011357 8.01135,-19.261357 0,-11.25 -8.01135,-19.261368 -8.01137,-8.011359 -19.26137,-8.011359 H 40.909092 q -11.25,0 -19.261367,8.011359 -8.011357,8.011368 -8.011357,19.261368 0,11.25 8.011357,19.261357 8.011367,8.011358 19.261368,8.011358 z m 0,-6.818178 q 8.522722,0 14.488631,-5.965905 5.965908,-5.965916 5.965908,-14.488632 0,-8.522727 -5.965908,-14.488632 -5.965909,-5.965926 -14.488631,-5.965926 -8.522725,0 -14.488635,5.965926 -5.965918,5.965905 -5.965918,14.488632 0,8.522716 5.965918,14.488632 5.96591,5.965905 14.488635,5.965905 z M 75,74.909095 Z"
     id="path1"
     style="stroke-width:0.17046" />
</svg>
