<svg xmlns="http://www.w3.org/2000/svg" width="128" height="128" viewBox="0 0 128 128">
    <defs>
        <g id="icon-arrow-down">
            <path d="M0 39l58 46.3 6 5 6-5L128 39l-3-3.8L64 70 3 35.2z"/>
        </g>
        <g id="icon-arrow-up">
            <path d="M0 86.6l58-46.4 6-5 6 5 58 46.4-3 3.7-61-34.8L3 90.3z"/>
        </g>

        <g id="icon-article">
            <path d="M94.8 0H19.4l-8 8v112l8.6 8h87.5l8-8V22L94.7 0zM67.5 112h-40v-12h40v12zm28-24h-68V76h68v12zm0-24h-68V52h68v12zm0-24h-68V28h68v12z"/>
        </g>

        <g id="icon-assigned-to">
            <path d="M64 56c6.8 0 13.2-2.5 17.8-7.4 4.5-4.8 7-12 7-20.7 0-8.6-2.3-15.6-6.8-20.5C77.6 2.5 71.2 0 64 0c-6.7 0-13 2.4-17.6 7.3-4.5 4.8-7 12-7 20.7 0 8.5 2.3 15.5 6.7 20.4 4.6 5 11 7.6 18 7.6zm45.5 18.2C85 59 43 59 18.7 74.2L14.5 121l6.2 7h86.8l6-7-4-46.8z"/>
        </g>

        <g id="icon-check">
            <path d="M128 18.6l-6.3-6.3-86 78L6.4 62.6 0 69l32.5 45.4h3z"/>
        </g>

        <g id="icon-clock">
            <path d="M64 0C28.7 0 0 28.6 0 64c0 35.3 28.7 64 64 64s64-28.7 64-64c0-35.4-28.7-64-64-64zm40.7 69.8L64 73.6 56.8 66 61 11.7h6L71 62l33.7 2v5.8z"/>
        </g>

        <g id="icon-comments">
            <path d="M117.8 6.4H10.2L0 16.3v66.7l10.2 9.4h15.4V124H30l26.3-31.6h61.5L128 83V16.6z"/>
        </g>

        <g id="icon-composer">
            <path d="M12.2 64.8C12.2 16.6 45.2 0 76.8 0c15.3 0 28 2.4 35.6 5.4l1.2 33.4H98l-8-19.2c-3.5-1.5-8.3-3-14.2-3C58.4 16.6 49.6 29 49.6 62c0 38.7 8.4 49.7 27.2 49.7 6 0 11.5-1.8 14.8-3.5l8-20h15l-1.2 33c-8.8 4-20.5 6.8-40 6.8-34.2 0-61.2-17.8-61.2-63.2z"/>
        </g>

        <g id="icon-cross">
            <path d="M0 119.8l8.2 8.2 62.6-57.2L128 8.2 119.8 0 57.2 57.2zm119.8 8.2l8.2-8.2-57.2-62.6L8.2 0 0 8.2l57.2 62.6z"/>
        </g>

        <g id="icon-gallery">
            <path d="M120 33.6h-20l-12-16H40l-12 16H8l-8 7.8v60l8 8h112l8-8v-60l-8-7.8zM64 89.4c-11 0-20-9-20-20s9-20 20-20 20 9 20 20-9 20-20 20z"/>
        </g>

        <g id="icon-interactive">
            <path d="M57.7 112c1.8 1.4 3.2 4 3.2 6v10h47l6.4-66c.2-2-1.3-4.6-3.3-5.5l-36.6-16-6-36.5c-.5-2.2-2.6-4-4.8-4h-5.4C56 0 54 1.8 53.8 4l-6 68.5c-.2 2.2-2 3.2-4 2.2L21 62.5c-2-1-4.6-.3-5.7 1.6l-6 10 48.4 38z"/>
        </g>

        <g id="icon-live-site">
            <path d="M25.7 30.4c0 11.6 6.2 19.4 14.6 25l.4.3c-5 3.4-15 11.4-15 20.5 0 7 4.4 13.6 14 15.7-10.2 1.8-21.2 6.3-21.2 17.5v1C7.3 98.7 0 83.4 0 65.7c0-26 15.6-48 37.2-58.4-7 5.3-11.5 13-11.5 23zm50.5 66.8c8 0 12.4 4 12.4 10 0 7-5 12.2-24 12.2-16.6 0-22.3-5.6-22.3-12 0-4.6 2-10.2 10.2-10.2h23.7zm32.6 14c2.2-4.4 3.5-9.5 3.5-15.2 0-17.4-9.3-25-29-25H51.8c-3.4 0-6.3-2.8-6.3-5.8 0-2.2 1.8-4.7 4-6.4 4.8 1.6 8.8 1.7 14.5 1.7 22.5 0 38-11 37.8-30.2 0-11-4.8-18.7-12.5-23.3C112 16.7 128 39 128 65.8c0 18-7.4 34-19.2 45.5zM64 50c-6.3 0-11.5-1.5-11.5-19.4 0-18 5.2-20.2 11.5-20.2 6.5 0 11.5 2.8 11.5 20.2 0 17.5-5.2 19.4-11.5 19.4z"/>
        </g>

        <g id="icon-liveblog">
            <path d="M42.3 0h85.3v32H42.3zm.3 48H128v32H42.5zm-.2 48h85.3v32H42.4zM0 0h23.4v32H0zm0 48h23.4v32H0zm0 48h23.4v32H0z"/>
        </g>

        <g id="icon-main-image">
            <path d="M0 12.4V106l10 9.3h118l-.2-93-9.6-9.3L0 12.5zm113.3 78.8H19.7l4.8-8.4 1.4-2.5 6-10.8 12.3 21.7 5-8.4 12-20.5L73.7 37h10l29.6 54.2z"/>
        </g>

        <g id="icon-ophan">
            <path d="M0 19.2v91.6h128V19.2H0zm83 63.6l-21-19-17.3 20.5-13-8.3-9.5 16.8L11 86.5 27.3 58l15 9.5 18.4-22L82 64.8 105 39l9.6 8.7-31.5 35z"/>
        </g>

        <g id="icon-pen">
            <path d="M0 29.4V9.8L9.8 0h19.7l78.7 78.7-29.4 29.5L0 29.4zM118.2 128L98.4 118l19.8-19.8 9.8 19.8-9.8 9.7z"/>
        </g>
        <g id="icon-incopy">
            <path d="M0 0v128h128V0H0zm43.16 108.518H26.705v-90.17H43.16v90.17zM91.518 96.54c5.43 0 9.196-1.125 12.232-2.397l2.134 11.465c-3.276 1.52-9.706 3.156-17.384 3.156-19.152 0-31.616-12.224-31.616-31.25 0-18.39 12.59-32.75 34.134-32.75 5.68 0 11.473 1.254 14.99 2.893l-2.768 11.58c-2.526-1.125-6.17-2.384-11.723-2.384-11.84 0-18.893 8.688-18.777 19.9 0 12.608 8.188 19.787 18.778 19.787z"/>
        </g>
        <g id="icon-presence">
            <path d="M40 55c5.6 0 10.8-2 14.5-6 3.6-4 5.7-9.6 5.7-16.7 0-7-2-12.6-5.5-16.6-3.6-4-8.8-6-14.5-6-5.5 0-10.7 2-14.4 6C22 19.4 20 25 20 32.2c0 7 2 12.6 5.6 16.6 3.6 4 8.7 6 14.4 6zm37 14.8c-20-12.4-54-12.4-73.6 0L0 108l5 5.6h70.3l5-5.7-3.4-38zM113 0h10l5 5v10l-26 25.5-15-15L113 0zM76.7 45.6l5-10.2L92 45.6l-10.2 5-5-5z"/>
        </g>

        <g id="icon-preview">
            <path d="M64 23.3c-42.4 0-64 41-64 41s21.6 41.2 64 41.2 64-41 64-41-21.6-41.2-64-41.2zM64 90c-14.7 0-26.6-12-26.6-27s12-27.2 26.6-27.2c14.7 0 26.6 12 26.6 27S78.6 90 64 90zm0-40.6c-7.3 0-13.3 6-13.3 13.5 0 7.4 6 13.5 13.3 13.5s13.3-6 13.3-13.6-6-13.6-13.3-13.6z"/>
        </g>

        <g id="icon-priority-urgent">
            <path d="M64 0C28.7 0 0 28.7 0 64s28.7 64 64 64 64-28.7 64-64S99.3 0 64 0zm30.3 81.3H33l-6-6 34.3-34.2H66L100 75.5l-6 6z"/>
        </g>

        <g id="icon-priority-very-urgent">
            <path d="M64 0C28.7 0 0 28.7 0 64s28.7 64 64 64 64-28.7 64-64S99.3 0 64 0zm26.4 102.3H36.8L31.6 97l30-30h4l30 30-5.2 5.3zm0-47.6H36.8l-5.2-5 30-30h4l30 30-5.2 5z"/>
        </g>

        <g id="icon-delete">
            <path d="M100.7 4.6h-22V0h-27v4.6H27.3l-6 6v10H108v-10zM64 33H19.7l7.4 87.8 7.3 7.2h58.7l7.3-7.2L108 33z"/>
        </g>

        <g id="icon-import">
            <path d="M58.2 57V6H70v51l20.8-16.2 5 5-29.7 30h-4l-29.8-30 5.2-5zm58.2 7v46.7H11.6V64l-5.8-5.7H0v58.2l5.8 5.8H122l6-5.8V58.3h-5.8z"/>
        </g>

        <g id="icon-needs-legal">
            <path d="M56.57 26.268c-.794.057-1.645.21-2.398.6L32.786 37.86c-3.006 1.554-4.146 5.182-2.598 8.195 1.548 3.012 5.382 4.352 8.394 2.798L59.968 37.86c3.02-1.548 4.147-5.382 2.6-8.394-1.167-2.26-3.614-3.378-5.997-3.198zm5.597 16.59c-.498.037-.927.156-1.4.4L43.38 52.05c-1.888.98-2.566 3.31-1.6 5.198l6.596 12.99c.972 1.888 3.316 2.572 5.197 1.6l17.188-8.794c1.888-.972 2.785-3.31 1.8-5.197l-6.795-12.99c-.73-1.42-2.103-2.113-3.598-2zM34.985 59.845c-.95.072-1.9.336-2.8.8l-28.18 14.59C.41 77.09-1.048 81.436.807 85.03l.8 1.6c1.86 3.593 6.198 4.845 9.793 2.997l28.38-14.39c3.59-1.85 5.048-6.4 3.2-9.995l-.8-1.4c-1.39-2.69-4.35-4.21-7.195-3.996zm41.972 5.996c-.796.058-1.642.212-2.398.6L53.172 77.433c-3.013 1.548-4.146 5.183-2.6 8.195 1.556 3.024 5.177 4.345 8.196 2.797l21.385-11.192c3.026-1.555 4.346-5.183 2.8-8.195-1.162-2.26-3.61-3.377-5.998-3.198zM43.78 99.22c-3.033 0-5.597 2.56-5.597 5.597 0 3.03 2.558 5.396 5.596 5.396h39.573c3.02 0 5.397-2.358 5.397-5.396s-2.57-5.603-5.597-5.597H43.78z" fill="#666"/>
        </g>

        <g id="icon-needs-legal-checked">
            <path d="M56.57 26.268c-.794.057-1.645.21-2.398.6L32.786 37.86c-3.006 1.554-4.146 5.182-2.598 8.195 1.548 3.012 5.382 4.352 8.394 2.798L59.968 37.86c3.02-1.548 4.147-5.382 2.6-8.394-1.167-2.26-3.614-3.378-5.997-3.198zm5.597 16.59c-.498.037-.927.156-1.4.4L43.38 52.05c-1.888.98-2.566 3.31-1.6 5.198l6.596 12.99c.972 1.888 3.316 2.572 5.197 1.6l17.188-8.794c1.888-.972 2.785-3.31 1.8-5.197l-6.795-12.99c-.73-1.42-2.103-2.113-3.598-2zM34.985 59.845c-.95.072-1.9.336-2.8.8l-28.18 14.59C.41 77.09-1.048 81.436.807 85.03l.8 1.6c1.86 3.593 6.198 4.845 9.793 2.997l28.38-14.39c3.59-1.85 5.048-6.4 3.2-9.995l-.8-1.4c-1.39-2.69-4.35-4.21-7.195-3.996zm41.972 5.996c-.796.058-1.642.212-2.398.6L53.172 77.433c-3.013 1.548-4.146 5.183-2.6 8.195 1.556 3.024 5.177 4.345 8.196 2.797l21.385-11.192c3.026-1.555 4.346-5.183 2.8-8.195-1.162-2.26-3.61-3.377-5.998-3.198zM43.78 99.22c-3.033 0-5.597 2.56-5.597 5.597 0 3.03 2.558 5.396 5.596 5.396h39.573c3.02 0 5.397-2.358 5.397-5.396s-2.57-5.603-5.597-5.597H43.78z" fill="#666"/><g transform="matrix(6.396 0 0 6.396 .007 -17.704)"><circle cx="15.046" cy="10.503" r="4.954" fill="#47ae38"/><path fill="#fff" d="M18.76 8.426l-.248-.313-4.31 3.08-2.622-1.173-.25.314 2.36 2.144.513.418.504-.415z"/></g>
        </g>

    </defs>
</svg>
