<svg xmlns="http://www.w3.org/2000/svg" width="128" height="128" viewBox="0 0 128 128"><path fill="#666" d="M97.355 566.844c-3.312 0-6 2.69-6 6s2.688 6 6 6c3.31 0 6-2.69 6-6s-2.69-6-6-6zm0 10.54c-.66 0-1.205-.536-1.205-1.202 0-.668.545-1.198 1.205-1.198.658 0 1.205.53 1.205 1.198 0 .666-.546 1.2-1.205 1.2zm.463-3.037h-.928l-.93-5.137.46-.5h1.865l.46.5-.927 5.137z"/><g fill="#231F20"><path d="M40.034 55.014h.07c5.5.02 10.666-1.98 14.354-5.938 3.66-3.93 5.757-9.674 5.743-16.812.015-6.903-1.95-12.556-5.54-16.514-3.577-3.98-8.785-6.09-14.5-6.077-5.5-.014-10.675 1.958-14.348 5.89-3.667 3.93-5.757 9.63-5.743 16.763 0 6.89 1.937 12.59 5.52 16.583 3.583 3.98 8.743 6.104 14.444 6.104zM76.917 69.757c-19.792-12.375-53.77-12.375-73.528 0h-.05v.118L0 107.665l4.958 5.69h70.354l4.958-5.69-3.353-37.908zM112.923 0H123l5 5.04v10.092l-25.938 25.34-15.14-15.083 26-25.39zM76.798 45.576l5.035-10.14 10.14 10.14-10.14 5.04-5.035-5.04z"/></g></svg>