<svg xmlns="http://www.w3.org/2000/svg" width="128" height="128" viewBox="0 0 128 128"><path fill="#666" d="M97.355 566.844c-3.312 0-6 2.69-6 6s2.688 6 6 6c3.31 0 6-2.69 6-6s-2.69-6-6-6zm0 10.54c-.66 0-1.205-.536-1.205-1.202 0-.668.545-1.198 1.205-1.198.658 0 1.205.53 1.205 1.198 0 .666-.546 1.2-1.205 1.2zm.463-3.037h-.928l-.93-5.137.46-.5h1.865l.46.5-.927 5.137z"/><path fill="#231F20" d="M0 19.21v91.546h128V19.21H0zm83.062 63.582l-21.088-18.85L44.696 84.32l-12.982-8.33-9.526 16.848-11.144-6.312L27.268 57.9l14.92 9.598 18.5-21.85 21.375 19.1 23.054-25.6 9.518 8.563-31.573 35.082z"/></svg>