<svg xmlns="http://www.w3.org/2000/svg" width="128" height="128" viewBox="0 0 128 128"><g fill="#231F20"><path d="M64 23.305c-42.438 0-64 41.125-64 41.125s21.562 41.116 64 41.116c42.446 0 64-41.116 64-41.116s-21.554-41.125-64-41.125zm0 66.715c-14.66 0-26.59-12.152-26.59-27.116C37.41 47.92 49.34 35.76 64 35.76c14.67 0 26.598 12.16 26.598 27.144C90.598 77.867 78.67 90.02 64 90.02zM64 49.35c-7.34 0-13.304 6.045-13.304 13.554 0 7.474 5.964 13.57 13.304 13.57s13.33-6.097 13.33-13.57c0-7.51-5.99-13.554-13.33-13.554z"/></g></svg>
